<mxfile host="app.diagrams.net" modified="2024-02-28T17:20:55.969Z" agent="Mozilla/5.0 (Macintosh; Intel Mac OS X 10_15_7) AppleWebKit/537.36 (KHTML, like Gecko) Chrome/121.0.0.0 Safari/537.36" etag="-CZmftUIjjCX0cpO9wIw" version="23.1.6" type="github" pages="4">
  <diagram name="DCU-Quiz" id="qdEKVcrkpriq7ZI47U5G">
    <mxGraphModel dx="3660" dy="1984" grid="1" gridSize="10" guides="1" tooltips="1" connect="1" arrows="1" fold="1" page="1" pageScale="1" pageWidth="850" pageHeight="1100" math="0" shadow="0">
      <root>
        <mxCell id="0" />
        <mxCell id="1" parent="0" />
        <mxCell id="q_01qjkOqOAWfI39asXP-1" value="Player" style="shape=umlActor;verticalLabelPosition=bottom;verticalAlign=top;html=1;" parent="1" vertex="1">
          <mxGeometry x="170" y="480" width="30" height="60" as="geometry" />
        </mxCell>
        <mxCell id="q_01qjkOqOAWfI39asXP-2" value="Fournisseur" style="shape=umlActor;verticalLabelPosition=bottom;verticalAlign=top;html=1;" parent="1" vertex="1">
          <mxGeometry x="90" y="1100" width="30" height="60" as="geometry" />
        </mxCell>
        <mxCell id="q_01qjkOqOAWfI39asXP-7" value="Root" style="shape=umlActor;verticalLabelPosition=bottom;verticalAlign=top;html=1;" parent="1" vertex="1">
          <mxGeometry x="90" y="1960" width="30" height="60" as="geometry" />
        </mxCell>
        <mxCell id="q_01qjkOqOAWfI39asXP-10" value="Diagramme de Cas d&#39;utilisation" style="shape=umlFrame;whiteSpace=wrap;html=1;pointerEvents=0;recursiveResize=0;container=1;collapsible=0;width=160;" parent="1" vertex="1">
          <mxGeometry x="380" y="200" width="910" height="2290" as="geometry" />
        </mxCell>
        <mxCell id="q_01qjkOqOAWfI39asXP-12" value="ACTIVER COMPTE" style="ellipse;whiteSpace=wrap;html=1;" parent="q_01qjkOqOAWfI39asXP-10" vertex="1">
          <mxGeometry x="130" y="230" width="120" height="50" as="geometry" />
        </mxCell>
        <mxCell id="q_01qjkOqOAWfI39asXP-15" value="DESACTIVER COMPTE" style="ellipse;whiteSpace=wrap;html=1;" parent="q_01qjkOqOAWfI39asXP-10" vertex="1">
          <mxGeometry x="320" y="100" width="120" height="50" as="geometry" />
        </mxCell>
        <mxCell id="q_01qjkOqOAWfI39asXP-16" value="MODIFIER INFORMATION" style="ellipse;whiteSpace=wrap;html=1;" parent="q_01qjkOqOAWfI39asXP-10" vertex="1">
          <mxGeometry x="370" y="20" width="120" height="50" as="geometry" />
        </mxCell>
        <mxCell id="q_01qjkOqOAWfI39asXP-17" value="GERER PROFIL" style="ellipse;whiteSpace=wrap;html=1;" parent="q_01qjkOqOAWfI39asXP-10" vertex="1">
          <mxGeometry x="75" y="120" width="120" height="50" as="geometry" />
        </mxCell>
        <mxCell id="q_01qjkOqOAWfI39asXP-20" value="" style="endArrow=block;html=1;rounded=0;align=center;verticalAlign=bottom;endFill=0;labelBackgroundColor=none;endSize=8;" parent="q_01qjkOqOAWfI39asXP-10" source="q_01qjkOqOAWfI39asXP-15" target="q_01qjkOqOAWfI39asXP-17" edge="1">
          <mxGeometry relative="1" as="geometry">
            <mxPoint x="310" y="382" as="sourcePoint" />
            <mxPoint x="361" y="350" as="targetPoint" />
          </mxGeometry>
        </mxCell>
        <mxCell id="q_01qjkOqOAWfI39asXP-21" value="" style="resizable=0;html=1;align=center;verticalAlign=top;labelBackgroundColor=none;" parent="q_01qjkOqOAWfI39asXP-20" connectable="0" vertex="1">
          <mxGeometry relative="1" as="geometry" />
        </mxCell>
        <mxCell id="q_01qjkOqOAWfI39asXP-22" value="" style="endArrow=block;html=1;rounded=0;align=center;verticalAlign=bottom;endFill=0;labelBackgroundColor=none;endSize=8;" parent="q_01qjkOqOAWfI39asXP-10" source="q_01qjkOqOAWfI39asXP-16" target="q_01qjkOqOAWfI39asXP-17" edge="1">
          <mxGeometry relative="1" as="geometry">
            <mxPoint x="280" y="192" as="sourcePoint" />
            <mxPoint x="331" y="160" as="targetPoint" />
          </mxGeometry>
        </mxCell>
        <mxCell id="q_01qjkOqOAWfI39asXP-23" value="" style="resizable=0;html=1;align=center;verticalAlign=top;labelBackgroundColor=none;" parent="q_01qjkOqOAWfI39asXP-22" connectable="0" vertex="1">
          <mxGeometry relative="1" as="geometry" />
        </mxCell>
        <mxCell id="q_01qjkOqOAWfI39asXP-24" value="CONSULTER STATISTIQUE" style="ellipse;whiteSpace=wrap;html=1;" parent="q_01qjkOqOAWfI39asXP-10" vertex="1">
          <mxGeometry x="180" y="20" width="120" height="50" as="geometry" />
        </mxCell>
        <mxCell id="q_01qjkOqOAWfI39asXP-25" value="" style="endArrow=block;html=1;rounded=0;align=center;verticalAlign=bottom;endFill=0;labelBackgroundColor=none;endSize=8;" parent="q_01qjkOqOAWfI39asXP-10" source="q_01qjkOqOAWfI39asXP-24" target="q_01qjkOqOAWfI39asXP-17" edge="1">
          <mxGeometry relative="1" as="geometry">
            <mxPoint x="400" y="255" as="sourcePoint" />
            <mxPoint x="284" y="240" as="targetPoint" />
          </mxGeometry>
        </mxCell>
        <mxCell id="q_01qjkOqOAWfI39asXP-26" value="" style="resizable=0;html=1;align=center;verticalAlign=top;labelBackgroundColor=none;" parent="q_01qjkOqOAWfI39asXP-25" connectable="0" vertex="1">
          <mxGeometry relative="1" as="geometry" />
        </mxCell>
        <mxCell id="q_01qjkOqOAWfI39asXP-27" value="CONSULTER HISTORIQUE&amp;nbsp;" style="ellipse;whiteSpace=wrap;html=1;" parent="q_01qjkOqOAWfI39asXP-10" vertex="1">
          <mxGeometry x="50" y="40" width="120" height="50" as="geometry" />
        </mxCell>
        <mxCell id="q_01qjkOqOAWfI39asXP-29" value="ACHETER PACK" style="ellipse;whiteSpace=wrap;html=1;" parent="q_01qjkOqOAWfI39asXP-10" vertex="1">
          <mxGeometry x="530" y="290" width="120" height="50" as="geometry" />
        </mxCell>
        <mxCell id="q_01qjkOqOAWfI39asXP-31" value="" style="endArrow=block;html=1;rounded=0;align=center;verticalAlign=bottom;endFill=0;labelBackgroundColor=none;endSize=8;" parent="q_01qjkOqOAWfI39asXP-10" source="q_01qjkOqOAWfI39asXP-27" target="q_01qjkOqOAWfI39asXP-17" edge="1">
          <mxGeometry relative="1" as="geometry">
            <mxPoint x="403" y="217" as="sourcePoint" />
            <mxPoint x="287" y="202" as="targetPoint" />
          </mxGeometry>
        </mxCell>
        <mxCell id="q_01qjkOqOAWfI39asXP-32" value="" style="resizable=0;html=1;align=center;verticalAlign=top;labelBackgroundColor=none;" parent="q_01qjkOqOAWfI39asXP-31" connectable="0" vertex="1">
          <mxGeometry relative="1" as="geometry" />
        </mxCell>
        <mxCell id="q_01qjkOqOAWfI39asXP-33" value="JOUER UN PACK" style="ellipse;whiteSpace=wrap;html=1;" parent="q_01qjkOqOAWfI39asXP-10" vertex="1">
          <mxGeometry x="290" y="300" width="120" height="50" as="geometry" />
        </mxCell>
        <mxCell id="q_01qjkOqOAWfI39asXP-34" value="&amp;lt;&amp;lt;include&amp;gt;&amp;gt;" style="html=1;verticalAlign=bottom;labelBackgroundColor=none;endArrow=open;endFill=0;dashed=1;rounded=0;" parent="q_01qjkOqOAWfI39asXP-10" source="q_01qjkOqOAWfI39asXP-33" target="q_01qjkOqOAWfI39asXP-29" edge="1">
          <mxGeometry width="160" relative="1" as="geometry">
            <mxPoint x="460" y="350" as="sourcePoint" />
            <mxPoint x="620" y="350" as="targetPoint" />
          </mxGeometry>
        </mxCell>
        <mxCell id="q_01qjkOqOAWfI39asXP-36" value="SUSPENDRE LE JEU" style="ellipse;whiteSpace=wrap;html=1;" parent="q_01qjkOqOAWfI39asXP-10" vertex="1">
          <mxGeometry x="470" y="210" width="120" height="50" as="geometry" />
        </mxCell>
        <mxCell id="q_01qjkOqOAWfI39asXP-37" value="&amp;lt;&amp;lt;extend&amp;gt;&amp;gt;" style="html=1;verticalAlign=bottom;labelBackgroundColor=none;endArrow=open;endFill=0;dashed=1;rounded=0;" parent="q_01qjkOqOAWfI39asXP-10" source="q_01qjkOqOAWfI39asXP-36" target="q_01qjkOqOAWfI39asXP-33" edge="1">
          <mxGeometry width="160" relative="1" as="geometry">
            <mxPoint x="120" y="444.68000000000006" as="sourcePoint" />
            <mxPoint x="280" y="444.68000000000006" as="targetPoint" />
          </mxGeometry>
        </mxCell>
        <mxCell id="q_01qjkOqOAWfI39asXP-38" value="CONSULTER PACKS" style="ellipse;whiteSpace=wrap;html=1;" parent="q_01qjkOqOAWfI39asXP-10" vertex="1">
          <mxGeometry x="250" y="390" width="130" height="50" as="geometry" />
        </mxCell>
        <mxCell id="q_01qjkOqOAWfI39asXP-42" value="LIRE RÈGLEMENT ET POLICY" style="ellipse;whiteSpace=wrap;html=1;" parent="q_01qjkOqOAWfI39asXP-10" vertex="1">
          <mxGeometry x="230" y="500" width="120" height="50" as="geometry" />
        </mxCell>
        <mxCell id="q_01qjkOqOAWfI39asXP-43" value="CONSULTER LES PRIX" style="ellipse;whiteSpace=wrap;html=1;" parent="q_01qjkOqOAWfI39asXP-10" vertex="1">
          <mxGeometry x="10" y="480" width="120" height="50" as="geometry" />
        </mxCell>
        <mxCell id="q_01qjkOqOAWfI39asXP-44" value="ACCEPTER POLITIQUE DE CONFIDENTIALITÉ" style="ellipse;whiteSpace=wrap;html=1;" parent="q_01qjkOqOAWfI39asXP-10" vertex="1">
          <mxGeometry x="570" y="100" width="140" height="70" as="geometry" />
        </mxCell>
        <mxCell id="q_01qjkOqOAWfI39asXP-45" value="&amp;lt;&amp;lt;include&amp;gt;&amp;gt;" style="html=1;verticalAlign=bottom;labelBackgroundColor=none;endArrow=open;endFill=0;dashed=1;rounded=0;" parent="q_01qjkOqOAWfI39asXP-10" source="q_01qjkOqOAWfI39asXP-29" target="q_01qjkOqOAWfI39asXP-44" edge="1">
          <mxGeometry width="160" relative="1" as="geometry">
            <mxPoint x="972.9630533854166" y="70" as="sourcePoint" />
            <mxPoint x="676" y="344" as="targetPoint" />
          </mxGeometry>
        </mxCell>
        <mxCell id="q_01qjkOqOAWfI39asXP-46" value="" style="endArrow=block;html=1;rounded=0;align=center;verticalAlign=bottom;endFill=0;labelBackgroundColor=none;endSize=8;" parent="q_01qjkOqOAWfI39asXP-10" source="q_01qjkOqOAWfI39asXP-33" target="q_01qjkOqOAWfI39asXP-38" edge="1">
          <mxGeometry relative="1" as="geometry">
            <mxPoint x="372" y="198" as="sourcePoint" />
            <mxPoint x="248" y="182" as="targetPoint" />
          </mxGeometry>
        </mxCell>
        <mxCell id="q_01qjkOqOAWfI39asXP-47" value="" style="resizable=0;html=1;align=center;verticalAlign=top;labelBackgroundColor=none;" parent="q_01qjkOqOAWfI39asXP-46" connectable="0" vertex="1">
          <mxGeometry relative="1" as="geometry" />
        </mxCell>
        <mxCell id="q_01qjkOqOAWfI39asXP-48" value="&amp;lt;&amp;lt;extend&amp;gt;&amp;gt;" style="html=1;verticalAlign=bottom;labelBackgroundColor=none;endArrow=open;endFill=0;dashed=1;rounded=0;" parent="q_01qjkOqOAWfI39asXP-10" source="q_01qjkOqOAWfI39asXP-42" target="q_01qjkOqOAWfI39asXP-50" edge="1">
          <mxGeometry width="160" relative="1" as="geometry">
            <mxPoint x="300" y="490" as="sourcePoint" />
            <mxPoint x="200" y="430" as="targetPoint" />
          </mxGeometry>
        </mxCell>
        <mxCell id="q_01qjkOqOAWfI39asXP-50" value="GÉRER QUIZ" style="ellipse;whiteSpace=wrap;html=1;" parent="q_01qjkOqOAWfI39asXP-10" vertex="1">
          <mxGeometry x="75" y="320" width="130" height="50" as="geometry" />
        </mxCell>
        <mxCell id="q_01qjkOqOAWfI39asXP-51" value="" style="endArrow=block;html=1;rounded=0;align=center;verticalAlign=bottom;endFill=0;labelBackgroundColor=none;endSize=8;" parent="q_01qjkOqOAWfI39asXP-10" source="q_01qjkOqOAWfI39asXP-38" target="q_01qjkOqOAWfI39asXP-50" edge="1">
          <mxGeometry relative="1" as="geometry">
            <mxPoint x="311" y="379" as="sourcePoint" />
            <mxPoint x="269" y="431" as="targetPoint" />
          </mxGeometry>
        </mxCell>
        <mxCell id="q_01qjkOqOAWfI39asXP-52" value="" style="resizable=0;html=1;align=center;verticalAlign=top;labelBackgroundColor=none;" parent="q_01qjkOqOAWfI39asXP-51" connectable="0" vertex="1">
          <mxGeometry relative="1" as="geometry" />
        </mxCell>
        <mxCell id="q_01qjkOqOAWfI39asXP-54" value="PARTARGER RESULTAT SOCIAL MEDIA" style="ellipse;whiteSpace=wrap;html=1;" parent="q_01qjkOqOAWfI39asXP-10" vertex="1">
          <mxGeometry x="730" y="380" width="130" height="50" as="geometry" />
        </mxCell>
        <mxCell id="q_01qjkOqOAWfI39asXP-56" value="PASSER UN QUIZ" style="ellipse;whiteSpace=wrap;html=1;" parent="q_01qjkOqOAWfI39asXP-10" vertex="1">
          <mxGeometry x="420" y="140" width="130" height="50" as="geometry" />
        </mxCell>
        <mxCell id="q_01qjkOqOAWfI39asXP-57" value="&amp;lt;&amp;lt;extend&amp;gt;&amp;gt;" style="html=1;verticalAlign=bottom;labelBackgroundColor=none;endArrow=open;endFill=0;dashed=1;rounded=0;" parent="q_01qjkOqOAWfI39asXP-10" source="q_01qjkOqOAWfI39asXP-56" target="q_01qjkOqOAWfI39asXP-33" edge="1">
          <mxGeometry x="-0.0029" width="160" relative="1" as="geometry">
            <mxPoint x="500" y="388" as="sourcePoint" />
            <mxPoint x="451" y="450" as="targetPoint" />
            <mxPoint as="offset" />
          </mxGeometry>
        </mxCell>
        <mxCell id="q_01qjkOqOAWfI39asXP-94" value="RÉJOUER" style="ellipse;whiteSpace=wrap;html=1;" parent="q_01qjkOqOAWfI39asXP-10" vertex="1">
          <mxGeometry x="575" y="540" width="130" height="50" as="geometry" />
        </mxCell>
        <mxCell id="q_01qjkOqOAWfI39asXP-96" value="CONSULTER CLASSMENT" style="ellipse;whiteSpace=wrap;html=1;" parent="q_01qjkOqOAWfI39asXP-10" vertex="1">
          <mxGeometry x="110" y="530" width="130" height="50" as="geometry" />
        </mxCell>
        <mxCell id="q_01qjkOqOAWfI39asXP-97" value="" style="endArrow=block;html=1;rounded=0;align=center;verticalAlign=bottom;endFill=0;labelBackgroundColor=none;endSize=8;" parent="q_01qjkOqOAWfI39asXP-10" source="q_01qjkOqOAWfI39asXP-96" target="q_01qjkOqOAWfI39asXP-50" edge="1">
          <mxGeometry relative="1" as="geometry">
            <mxPoint x="230" y="574" as="sourcePoint" />
            <mxPoint x="145" y="540" as="targetPoint" />
          </mxGeometry>
        </mxCell>
        <mxCell id="q_01qjkOqOAWfI39asXP-98" value="" style="resizable=0;html=1;align=center;verticalAlign=top;labelBackgroundColor=none;" parent="q_01qjkOqOAWfI39asXP-97" connectable="0" vertex="1">
          <mxGeometry relative="1" as="geometry" />
        </mxCell>
        <mxCell id="q_01qjkOqOAWfI39asXP-99" value="" style="endArrow=block;html=1;rounded=0;align=center;verticalAlign=bottom;endFill=0;labelBackgroundColor=none;endSize=8;" parent="q_01qjkOqOAWfI39asXP-10" source="q_01qjkOqOAWfI39asXP-43" target="q_01qjkOqOAWfI39asXP-50" edge="1">
          <mxGeometry relative="1" as="geometry">
            <mxPoint x="172" y="570" as="sourcePoint" />
            <mxPoint x="153" y="380" as="targetPoint" />
          </mxGeometry>
        </mxCell>
        <mxCell id="q_01qjkOqOAWfI39asXP-100" value="" style="resizable=0;html=1;align=center;verticalAlign=top;labelBackgroundColor=none;" parent="q_01qjkOqOAWfI39asXP-99" connectable="0" vertex="1">
          <mxGeometry relative="1" as="geometry" />
        </mxCell>
        <mxCell id="q_01qjkOqOAWfI39asXP-101" value="TERMINER LE JEU" style="ellipse;whiteSpace=wrap;html=1;" parent="q_01qjkOqOAWfI39asXP-10" vertex="1">
          <mxGeometry x="490" y="440" width="130" height="50" as="geometry" />
        </mxCell>
        <mxCell id="q_01qjkOqOAWfI39asXP-102" value="&amp;lt;&amp;lt;extend&amp;gt;&amp;gt;" style="html=1;verticalAlign=bottom;labelBackgroundColor=none;endArrow=open;endFill=0;dashed=1;rounded=0;" parent="q_01qjkOqOAWfI39asXP-10" source="q_01qjkOqOAWfI39asXP-101" target="q_01qjkOqOAWfI39asXP-33" edge="1">
          <mxGeometry x="-0.0029" width="160" relative="1" as="geometry">
            <mxPoint x="520" y="452" as="sourcePoint" />
            <mxPoint x="455" y="350" as="targetPoint" />
            <mxPoint as="offset" />
          </mxGeometry>
        </mxCell>
        <mxCell id="q_01qjkOqOAWfI39asXP-104" value="&amp;lt;&amp;lt;extend&amp;gt;&amp;gt;" style="html=1;verticalAlign=bottom;labelBackgroundColor=none;endArrow=open;endFill=0;dashed=1;rounded=0;" parent="q_01qjkOqOAWfI39asXP-10" source="q_01qjkOqOAWfI39asXP-94" target="q_01qjkOqOAWfI39asXP-101" edge="1">
          <mxGeometry x="0.0021" width="160" relative="1" as="geometry">
            <mxPoint x="615" y="320" as="sourcePoint" />
            <mxPoint x="633" y="230" as="targetPoint" />
            <mxPoint as="offset" />
          </mxGeometry>
        </mxCell>
        <mxCell id="q_01qjkOqOAWfI39asXP-105" value="&amp;lt;&amp;lt;extend&amp;gt;&amp;gt;" style="html=1;verticalAlign=bottom;labelBackgroundColor=none;endArrow=open;endFill=0;dashed=1;rounded=0;" parent="q_01qjkOqOAWfI39asXP-10" source="q_01qjkOqOAWfI39asXP-54" target="q_01qjkOqOAWfI39asXP-101" edge="1">
          <mxGeometry x="0.0003" width="160" relative="1" as="geometry">
            <mxPoint x="643" y="600" as="sourcePoint" />
            <mxPoint x="607" y="530" as="targetPoint" />
            <mxPoint as="offset" />
          </mxGeometry>
        </mxCell>
        <mxCell id="QCA9Z_Ov1yEkCywOuRm5-1" value="FAIRE UN FEEDBACK" style="ellipse;whiteSpace=wrap;html=1;" vertex="1" parent="q_01qjkOqOAWfI39asXP-10">
          <mxGeometry x="450" y="600" width="130" height="50" as="geometry" />
        </mxCell>
        <mxCell id="QCA9Z_Ov1yEkCywOuRm5-2" value="&amp;lt;&amp;lt;extend&amp;gt;&amp;gt;" style="html=1;verticalAlign=bottom;labelBackgroundColor=none;endArrow=open;endFill=0;dashed=1;rounded=0;" edge="1" parent="q_01qjkOqOAWfI39asXP-10" source="QCA9Z_Ov1yEkCywOuRm5-1" target="q_01qjkOqOAWfI39asXP-101">
          <mxGeometry width="160" relative="1" as="geometry">
            <mxPoint x="481" y="542" as="sourcePoint" />
            <mxPoint x="574" y="458" as="targetPoint" />
          </mxGeometry>
        </mxCell>
        <mxCell id="QCA9Z_Ov1yEkCywOuRm5-5" value="AUTH" style="ellipse;whiteSpace=wrap;html=1;" vertex="1" parent="q_01qjkOqOAWfI39asXP-10">
          <mxGeometry x="50" y="700" width="130" height="50" as="geometry" />
        </mxCell>
        <mxCell id="QCA9Z_Ov1yEkCywOuRm5-7" value="&amp;lt;&amp;lt;include&amp;gt;&amp;gt;" style="html=1;verticalAlign=bottom;labelBackgroundColor=none;endArrow=open;endFill=0;dashed=1;rounded=0;" edge="1" parent="q_01qjkOqOAWfI39asXP-10" source="q_01qjkOqOAWfI39asXP-15" target="q_01qjkOqOAWfI39asXP-12">
          <mxGeometry width="160" relative="1" as="geometry">
            <mxPoint x="387" y="290" as="sourcePoint" />
            <mxPoint x="420" y="170" as="targetPoint" />
          </mxGeometry>
        </mxCell>
        <mxCell id="QCA9Z_Ov1yEkCywOuRm5-8" value="CONNEXION" style="ellipse;whiteSpace=wrap;html=1;" vertex="1" parent="q_01qjkOqOAWfI39asXP-10">
          <mxGeometry x="700" y="840" width="130" height="50" as="geometry" />
        </mxCell>
        <mxCell id="QCA9Z_Ov1yEkCywOuRm5-13" value="S&#39;INSCRIRE" style="ellipse;whiteSpace=wrap;html=1;" vertex="1" parent="q_01qjkOqOAWfI39asXP-10">
          <mxGeometry x="25" y="600" width="120" height="50" as="geometry" />
        </mxCell>
        <mxCell id="QCA9Z_Ov1yEkCywOuRm5-16" value="SE CONNECTER" style="ellipse;whiteSpace=wrap;html=1;" vertex="1" parent="q_01qjkOqOAWfI39asXP-10">
          <mxGeometry x="230" y="590" width="120" height="50" as="geometry" />
        </mxCell>
        <mxCell id="QCA9Z_Ov1yEkCywOuRm5-17" value="" style="endArrow=block;html=1;rounded=0;align=center;verticalAlign=bottom;endFill=0;labelBackgroundColor=none;endSize=8;" edge="1" parent="q_01qjkOqOAWfI39asXP-10" source="QCA9Z_Ov1yEkCywOuRm5-13" target="QCA9Z_Ov1yEkCywOuRm5-5">
          <mxGeometry relative="1" as="geometry">
            <mxPoint x="214" y="820" as="sourcePoint" />
            <mxPoint x="195" y="630" as="targetPoint" />
          </mxGeometry>
        </mxCell>
        <mxCell id="QCA9Z_Ov1yEkCywOuRm5-18" value="" style="resizable=0;html=1;align=center;verticalAlign=top;labelBackgroundColor=none;" connectable="0" vertex="1" parent="QCA9Z_Ov1yEkCywOuRm5-17">
          <mxGeometry relative="1" as="geometry" />
        </mxCell>
        <mxCell id="QCA9Z_Ov1yEkCywOuRm5-19" value="" style="endArrow=block;html=1;rounded=0;align=center;verticalAlign=bottom;endFill=0;labelBackgroundColor=none;endSize=8;" edge="1" parent="q_01qjkOqOAWfI39asXP-10" source="QCA9Z_Ov1yEkCywOuRm5-16" target="QCA9Z_Ov1yEkCywOuRm5-5">
          <mxGeometry relative="1" as="geometry">
            <mxPoint x="205" y="940" as="sourcePoint" />
            <mxPoint x="186" y="750" as="targetPoint" />
          </mxGeometry>
        </mxCell>
        <mxCell id="QCA9Z_Ov1yEkCywOuRm5-20" value="" style="resizable=0;html=1;align=center;verticalAlign=top;labelBackgroundColor=none;" connectable="0" vertex="1" parent="QCA9Z_Ov1yEkCywOuRm5-19">
          <mxGeometry relative="1" as="geometry" />
        </mxCell>
        <mxCell id="QCA9Z_Ov1yEkCywOuRm5-21" value="REINITIALISER LE MDP" style="ellipse;whiteSpace=wrap;html=1;" vertex="1" parent="q_01qjkOqOAWfI39asXP-10">
          <mxGeometry x="280" y="680" width="120" height="50" as="geometry" />
        </mxCell>
        <mxCell id="QCA9Z_Ov1yEkCywOuRm5-22" value="" style="endArrow=block;html=1;rounded=0;align=center;verticalAlign=bottom;endFill=0;labelBackgroundColor=none;endSize=8;" edge="1" parent="q_01qjkOqOAWfI39asXP-10" source="QCA9Z_Ov1yEkCywOuRm5-21" target="QCA9Z_Ov1yEkCywOuRm5-5">
          <mxGeometry relative="1" as="geometry">
            <mxPoint x="144.5" y="940" as="sourcePoint" />
            <mxPoint x="125.5" y="750" as="targetPoint" />
          </mxGeometry>
        </mxCell>
        <mxCell id="QCA9Z_Ov1yEkCywOuRm5-23" value="" style="resizable=0;html=1;align=center;verticalAlign=top;labelBackgroundColor=none;" connectable="0" vertex="1" parent="QCA9Z_Ov1yEkCywOuRm5-22">
          <mxGeometry relative="1" as="geometry" />
        </mxCell>
        <mxCell id="QCA9Z_Ov1yEkCywOuRm5-24" value="GERER LE QUIZ" style="ellipse;whiteSpace=wrap;html=1;" vertex="1" parent="q_01qjkOqOAWfI39asXP-10">
          <mxGeometry x="35" y="970" width="130" height="50" as="geometry" />
        </mxCell>
        <mxCell id="QCA9Z_Ov1yEkCywOuRm5-25" value="CRUD QUIZ" style="ellipse;whiteSpace=wrap;html=1;" vertex="1" parent="q_01qjkOqOAWfI39asXP-10">
          <mxGeometry x="450" y="770" width="130" height="50" as="geometry" />
        </mxCell>
        <mxCell id="QCA9Z_Ov1yEkCywOuRm5-28" value="GERER PACK" style="ellipse;whiteSpace=wrap;html=1;" vertex="1" parent="q_01qjkOqOAWfI39asXP-10">
          <mxGeometry x="40" y="1170" width="130" height="50" as="geometry" />
        </mxCell>
        <mxCell id="QCA9Z_Ov1yEkCywOuRm5-27" value="GERER QUESTION" style="ellipse;whiteSpace=wrap;html=1;" vertex="1" parent="q_01qjkOqOAWfI39asXP-10">
          <mxGeometry x="35" y="1070" width="130" height="50" as="geometry" />
        </mxCell>
        <mxCell id="QCA9Z_Ov1yEkCywOuRm5-26" value="CRUD CATEGORIE QUIZ" style="ellipse;whiteSpace=wrap;html=1;" vertex="1" parent="q_01qjkOqOAWfI39asXP-10">
          <mxGeometry x="457.5" y="840" width="130" height="50" as="geometry" />
        </mxCell>
        <mxCell id="QCA9Z_Ov1yEkCywOuRm5-30" value="" style="endArrow=block;html=1;rounded=0;align=center;verticalAlign=bottom;endFill=0;labelBackgroundColor=none;endSize=8;" edge="1" parent="q_01qjkOqOAWfI39asXP-10" source="QCA9Z_Ov1yEkCywOuRm5-25" target="QCA9Z_Ov1yEkCywOuRm5-24">
          <mxGeometry relative="1" as="geometry">
            <mxPoint x="311" y="930" as="sourcePoint" />
            <mxPoint x="199" y="885" as="targetPoint" />
          </mxGeometry>
        </mxCell>
        <mxCell id="QCA9Z_Ov1yEkCywOuRm5-31" value="" style="resizable=0;html=1;align=center;verticalAlign=top;labelBackgroundColor=none;" connectable="0" vertex="1" parent="QCA9Z_Ov1yEkCywOuRm5-30">
          <mxGeometry relative="1" as="geometry" />
        </mxCell>
        <mxCell id="QCA9Z_Ov1yEkCywOuRm5-32" value="" style="endArrow=block;html=1;rounded=0;align=center;verticalAlign=bottom;endFill=0;labelBackgroundColor=none;endSize=8;" edge="1" parent="q_01qjkOqOAWfI39asXP-10" source="QCA9Z_Ov1yEkCywOuRm5-26" target="QCA9Z_Ov1yEkCywOuRm5-24">
          <mxGeometry relative="1" as="geometry">
            <mxPoint x="188" y="882" as="sourcePoint" />
            <mxPoint x="113" y="910" as="targetPoint" />
          </mxGeometry>
        </mxCell>
        <mxCell id="QCA9Z_Ov1yEkCywOuRm5-33" value="" style="resizable=0;html=1;align=center;verticalAlign=top;labelBackgroundColor=none;" connectable="0" vertex="1" parent="QCA9Z_Ov1yEkCywOuRm5-32">
          <mxGeometry relative="1" as="geometry" />
        </mxCell>
        <mxCell id="QCA9Z_Ov1yEkCywOuRm5-38" value="CRD PACK" style="ellipse;whiteSpace=wrap;html=1;" vertex="1" parent="q_01qjkOqOAWfI39asXP-10">
          <mxGeometry x="250" y="1170" width="130" height="50" as="geometry" />
        </mxCell>
        <mxCell id="QCA9Z_Ov1yEkCywOuRm5-41" value="" style="endArrow=block;html=1;rounded=0;align=center;verticalAlign=bottom;endFill=0;labelBackgroundColor=none;endSize=8;exitX=0;exitY=0.5;exitDx=0;exitDy=0;" edge="1" parent="q_01qjkOqOAWfI39asXP-10" source="QCA9Z_Ov1yEkCywOuRm5-38" target="QCA9Z_Ov1yEkCywOuRm5-28">
          <mxGeometry relative="1" as="geometry">
            <mxPoint x="635" y="990" as="sourcePoint" />
            <mxPoint x="470" y="984" as="targetPoint" />
          </mxGeometry>
        </mxCell>
        <mxCell id="QCA9Z_Ov1yEkCywOuRm5-42" value="" style="resizable=0;html=1;align=center;verticalAlign=top;labelBackgroundColor=none;" connectable="0" vertex="1" parent="QCA9Z_Ov1yEkCywOuRm5-41">
          <mxGeometry relative="1" as="geometry" />
        </mxCell>
        <mxCell id="QCA9Z_Ov1yEkCywOuRm5-43" value="CRUD QUESTION" style="ellipse;whiteSpace=wrap;html=1;" vertex="1" parent="q_01qjkOqOAWfI39asXP-10">
          <mxGeometry x="300" y="1080" width="130" height="50" as="geometry" />
        </mxCell>
        <mxCell id="QCA9Z_Ov1yEkCywOuRm5-44" value="" style="endArrow=block;html=1;rounded=0;align=center;verticalAlign=bottom;endFill=0;labelBackgroundColor=none;endSize=8;" edge="1" parent="q_01qjkOqOAWfI39asXP-10" source="QCA9Z_Ov1yEkCywOuRm5-43" target="QCA9Z_Ov1yEkCywOuRm5-27">
          <mxGeometry relative="1" as="geometry">
            <mxPoint x="590" y="1071" as="sourcePoint" />
            <mxPoint x="434" y="1060" as="targetPoint" />
          </mxGeometry>
        </mxCell>
        <mxCell id="QCA9Z_Ov1yEkCywOuRm5-45" value="" style="resizable=0;html=1;align=center;verticalAlign=top;labelBackgroundColor=none;" connectable="0" vertex="1" parent="QCA9Z_Ov1yEkCywOuRm5-44">
          <mxGeometry relative="1" as="geometry" />
        </mxCell>
        <mxCell id="QCA9Z_Ov1yEkCywOuRm5-48" value="RETIRER/ AJOUTER PROMOTION PACK" style="ellipse;whiteSpace=wrap;html=1;" vertex="1" parent="q_01qjkOqOAWfI39asXP-10">
          <mxGeometry x="450" y="1260" width="160" height="50" as="geometry" />
        </mxCell>
        <mxCell id="QCA9Z_Ov1yEkCywOuRm5-51" value="MODIFIER PACK" style="ellipse;whiteSpace=wrap;html=1;" vertex="1" parent="q_01qjkOqOAWfI39asXP-10">
          <mxGeometry x="200" y="1290" width="110" height="40" as="geometry" />
        </mxCell>
        <mxCell id="QCA9Z_Ov1yEkCywOuRm5-53" value="" style="endArrow=block;html=1;rounded=0;align=center;verticalAlign=bottom;endFill=0;labelBackgroundColor=none;endSize=8;" edge="1" parent="q_01qjkOqOAWfI39asXP-10" source="QCA9Z_Ov1yEkCywOuRm5-51" target="QCA9Z_Ov1yEkCywOuRm5-28">
          <mxGeometry relative="1" as="geometry">
            <mxPoint x="307" y="1170" as="sourcePoint" />
            <mxPoint x="250" y="1186" as="targetPoint" />
          </mxGeometry>
        </mxCell>
        <mxCell id="QCA9Z_Ov1yEkCywOuRm5-54" value="" style="resizable=0;html=1;align=center;verticalAlign=top;labelBackgroundColor=none;" connectable="0" vertex="1" parent="QCA9Z_Ov1yEkCywOuRm5-53">
          <mxGeometry relative="1" as="geometry" />
        </mxCell>
        <mxCell id="QCA9Z_Ov1yEkCywOuRm5-56" value="&amp;lt;&amp;lt;extend&amp;gt;&amp;gt;" style="html=1;verticalAlign=bottom;labelBackgroundColor=none;endArrow=open;endFill=0;dashed=1;rounded=0;" edge="1" parent="q_01qjkOqOAWfI39asXP-10" source="QCA9Z_Ov1yEkCywOuRm5-48" target="QCA9Z_Ov1yEkCywOuRm5-51">
          <mxGeometry width="160" relative="1" as="geometry">
            <mxPoint x="422" y="1310" as="sourcePoint" />
            <mxPoint x="450" y="1200" as="targetPoint" />
          </mxGeometry>
        </mxCell>
        <mxCell id="QCA9Z_Ov1yEkCywOuRm5-57" value="GÉRER PROMOTION" style="ellipse;whiteSpace=wrap;html=1;" vertex="1" parent="q_01qjkOqOAWfI39asXP-10">
          <mxGeometry x="35" y="1340" width="140" height="50" as="geometry" />
        </mxCell>
        <mxCell id="QCA9Z_Ov1yEkCywOuRm5-61" value="CRUD PROMOTION" style="ellipse;whiteSpace=wrap;html=1;" vertex="1" parent="q_01qjkOqOAWfI39asXP-10">
          <mxGeometry x="230" y="1370" width="130" height="50" as="geometry" />
        </mxCell>
        <mxCell id="QCA9Z_Ov1yEkCywOuRm5-62" value="" style="endArrow=block;html=1;rounded=0;align=center;verticalAlign=bottom;endFill=0;labelBackgroundColor=none;endSize=8;" edge="1" parent="q_01qjkOqOAWfI39asXP-10" source="QCA9Z_Ov1yEkCywOuRm5-61" target="QCA9Z_Ov1yEkCywOuRm5-57">
          <mxGeometry relative="1" as="geometry">
            <mxPoint x="245" y="1265" as="sourcePoint" />
            <mxPoint x="165" y="1245" as="targetPoint" />
          </mxGeometry>
        </mxCell>
        <mxCell id="QCA9Z_Ov1yEkCywOuRm5-63" value="" style="resizable=0;html=1;align=center;verticalAlign=top;labelBackgroundColor=none;" connectable="0" vertex="1" parent="QCA9Z_Ov1yEkCywOuRm5-62">
          <mxGeometry relative="1" as="geometry" />
        </mxCell>
        <mxCell id="QCA9Z_Ov1yEkCywOuRm5-64" value="CRUD LOT DE QUIZ" style="ellipse;whiteSpace=wrap;html=1;" vertex="1" parent="q_01qjkOqOAWfI39asXP-10">
          <mxGeometry x="190" y="1030" width="130" height="50" as="geometry" />
        </mxCell>
        <mxCell id="QCA9Z_Ov1yEkCywOuRm5-65" value="" style="endArrow=block;html=1;rounded=0;align=center;verticalAlign=bottom;endFill=0;labelBackgroundColor=none;endSize=8;" edge="1" parent="q_01qjkOqOAWfI39asXP-10" source="QCA9Z_Ov1yEkCywOuRm5-64" target="QCA9Z_Ov1yEkCywOuRm5-24">
          <mxGeometry relative="1" as="geometry">
            <mxPoint x="289" y="907" as="sourcePoint" />
            <mxPoint x="176" y="932" as="targetPoint" />
          </mxGeometry>
        </mxCell>
        <mxCell id="QCA9Z_Ov1yEkCywOuRm5-66" value="" style="resizable=0;html=1;align=center;verticalAlign=top;labelBackgroundColor=none;" connectable="0" vertex="1" parent="QCA9Z_Ov1yEkCywOuRm5-65">
          <mxGeometry relative="1" as="geometry" />
        </mxCell>
        <mxCell id="QCA9Z_Ov1yEkCywOuRm5-67" value="MODIFIER RÈGLE MODÉRATION" style="ellipse;whiteSpace=wrap;html=1;" vertex="1" parent="q_01qjkOqOAWfI39asXP-10">
          <mxGeometry x="440" y="940" width="130" height="50" as="geometry" />
        </mxCell>
        <mxCell id="QCA9Z_Ov1yEkCywOuRm5-68" value="" style="endArrow=block;html=1;rounded=0;align=center;verticalAlign=bottom;endFill=0;labelBackgroundColor=none;endSize=8;" edge="1" parent="q_01qjkOqOAWfI39asXP-10" source="QCA9Z_Ov1yEkCywOuRm5-67" target="QCA9Z_Ov1yEkCywOuRm5-24">
          <mxGeometry relative="1" as="geometry">
            <mxPoint x="289" y="907" as="sourcePoint" />
            <mxPoint x="176" y="932" as="targetPoint" />
          </mxGeometry>
        </mxCell>
        <mxCell id="QCA9Z_Ov1yEkCywOuRm5-69" value="" style="resizable=0;html=1;align=center;verticalAlign=top;labelBackgroundColor=none;" connectable="0" vertex="1" parent="QCA9Z_Ov1yEkCywOuRm5-68">
          <mxGeometry relative="1" as="geometry" />
        </mxCell>
        <mxCell id="QCA9Z_Ov1yEkCywOuRm5-70" value="CONSULTER FEEDBACK" style="ellipse;whiteSpace=wrap;html=1;" vertex="1" parent="q_01qjkOqOAWfI39asXP-10">
          <mxGeometry x="45" y="770" width="130" height="50" as="geometry" />
        </mxCell>
        <mxCell id="QCA9Z_Ov1yEkCywOuRm5-77" value="&amp;lt;&amp;lt;include&amp;gt;&amp;gt;" style="html=1;verticalAlign=bottom;labelBackgroundColor=none;endArrow=open;endFill=0;dashed=1;rounded=0;" edge="1" parent="q_01qjkOqOAWfI39asXP-10" source="QCA9Z_Ov1yEkCywOuRm5-27" target="QCA9Z_Ov1yEkCywOuRm5-8">
          <mxGeometry width="160" relative="1" as="geometry">
            <mxPoint x="166" y="993" as="sourcePoint" />
            <mxPoint x="744" y="866" as="targetPoint" />
            <Array as="points">
              <mxPoint x="420" y="1160" />
            </Array>
          </mxGeometry>
        </mxCell>
        <mxCell id="QCA9Z_Ov1yEkCywOuRm5-78" value="&amp;lt;&amp;lt;include&amp;gt;&amp;gt;" style="html=1;verticalAlign=bottom;labelBackgroundColor=none;endArrow=open;endFill=0;dashed=1;rounded=0;" edge="1" parent="q_01qjkOqOAWfI39asXP-10" source="QCA9Z_Ov1yEkCywOuRm5-28" target="QCA9Z_Ov1yEkCywOuRm5-8">
          <mxGeometry width="160" relative="1" as="geometry">
            <mxPoint x="166" y="993" as="sourcePoint" />
            <mxPoint x="744" y="866" as="targetPoint" />
            <Array as="points">
              <mxPoint x="420" y="1260" />
            </Array>
          </mxGeometry>
        </mxCell>
        <mxCell id="QCA9Z_Ov1yEkCywOuRm5-79" value="&amp;lt;&amp;lt;include&amp;gt;&amp;gt;" style="html=1;verticalAlign=bottom;labelBackgroundColor=none;endArrow=open;endFill=0;dashed=1;rounded=0;" edge="1" parent="q_01qjkOqOAWfI39asXP-10" source="QCA9Z_Ov1yEkCywOuRm5-57" target="QCA9Z_Ov1yEkCywOuRm5-8">
          <mxGeometry width="160" relative="1" as="geometry">
            <mxPoint x="225" y="1428.5" as="sourcePoint" />
            <mxPoint x="803" y="1301.5" as="targetPoint" />
            <Array as="points">
              <mxPoint x="610" y="1340" />
            </Array>
          </mxGeometry>
        </mxCell>
        <mxCell id="QCA9Z_Ov1yEkCywOuRm5-76" value="&amp;lt;&amp;lt;include&amp;gt;&amp;gt;" style="html=1;verticalAlign=bottom;labelBackgroundColor=none;endArrow=open;endFill=0;dashed=1;rounded=0;" edge="1" parent="q_01qjkOqOAWfI39asXP-10" source="QCA9Z_Ov1yEkCywOuRm5-24" target="QCA9Z_Ov1yEkCywOuRm5-8">
          <mxGeometry width="160" relative="1" as="geometry">
            <mxPoint x="346" y="674" as="sourcePoint" />
            <mxPoint x="734" y="856" as="targetPoint" />
          </mxGeometry>
        </mxCell>
        <mxCell id="QCA9Z_Ov1yEkCywOuRm5-81" value="GÉRER UTILISATEUR" style="ellipse;whiteSpace=wrap;html=1;" vertex="1" parent="q_01qjkOqOAWfI39asXP-10">
          <mxGeometry x="9" y="1432" width="145" height="50" as="geometry" />
        </mxCell>
        <mxCell id="QCA9Z_Ov1yEkCywOuRm5-83" value="CRUD RÔLE" style="ellipse;whiteSpace=wrap;html=1;" vertex="1" parent="q_01qjkOqOAWfI39asXP-10">
          <mxGeometry x="225" y="1450" width="145" height="50" as="geometry" />
        </mxCell>
        <mxCell id="QCA9Z_Ov1yEkCywOuRm5-84" value="" style="endArrow=block;html=1;rounded=0;align=center;verticalAlign=bottom;endFill=0;labelBackgroundColor=none;endSize=8;" edge="1" parent="q_01qjkOqOAWfI39asXP-10" source="QCA9Z_Ov1yEkCywOuRm5-83" target="QCA9Z_Ov1yEkCywOuRm5-81">
          <mxGeometry relative="1" as="geometry">
            <mxPoint x="253" y="1428" as="sourcePoint" />
            <mxPoint x="163" y="1393" as="targetPoint" />
          </mxGeometry>
        </mxCell>
        <mxCell id="QCA9Z_Ov1yEkCywOuRm5-85" value="" style="resizable=0;html=1;align=center;verticalAlign=top;labelBackgroundColor=none;" connectable="0" vertex="1" parent="QCA9Z_Ov1yEkCywOuRm5-84">
          <mxGeometry relative="1" as="geometry" />
        </mxCell>
        <mxCell id="QCA9Z_Ov1yEkCywOuRm5-86" value="CRUD UTILISATEUR" style="ellipse;whiteSpace=wrap;html=1;" vertex="1" parent="q_01qjkOqOAWfI39asXP-10">
          <mxGeometry x="25" y="1590" width="145" height="50" as="geometry" />
        </mxCell>
        <mxCell id="QCA9Z_Ov1yEkCywOuRm5-87" value="" style="endArrow=block;html=1;rounded=0;align=center;verticalAlign=bottom;endFill=0;labelBackgroundColor=none;endSize=8;" edge="1" parent="q_01qjkOqOAWfI39asXP-10" source="QCA9Z_Ov1yEkCywOuRm5-86" target="QCA9Z_Ov1yEkCywOuRm5-81">
          <mxGeometry relative="1" as="geometry">
            <mxPoint x="211" y="1508" as="sourcePoint" />
            <mxPoint x="143" y="1485" as="targetPoint" />
          </mxGeometry>
        </mxCell>
        <mxCell id="QCA9Z_Ov1yEkCywOuRm5-88" value="" style="resizable=0;html=1;align=center;verticalAlign=top;labelBackgroundColor=none;" connectable="0" vertex="1" parent="QCA9Z_Ov1yEkCywOuRm5-87">
          <mxGeometry relative="1" as="geometry" />
        </mxCell>
        <mxCell id="QCA9Z_Ov1yEkCywOuRm5-89" value="CONSULTER LISTE PLAYER" style="ellipse;whiteSpace=wrap;html=1;" vertex="1" parent="q_01qjkOqOAWfI39asXP-10">
          <mxGeometry x="215" y="1537" width="145" height="50" as="geometry" />
        </mxCell>
        <mxCell id="QCA9Z_Ov1yEkCywOuRm5-90" value="" style="endArrow=block;html=1;rounded=0;align=center;verticalAlign=bottom;endFill=0;labelBackgroundColor=none;endSize=8;" edge="1" parent="q_01qjkOqOAWfI39asXP-10" source="QCA9Z_Ov1yEkCywOuRm5-89" target="QCA9Z_Ov1yEkCywOuRm5-81">
          <mxGeometry relative="1" as="geometry">
            <mxPoint x="92" y="1570" as="sourcePoint" />
            <mxPoint x="92" y="1492" as="targetPoint" />
          </mxGeometry>
        </mxCell>
        <mxCell id="QCA9Z_Ov1yEkCywOuRm5-91" value="" style="resizable=0;html=1;align=center;verticalAlign=top;labelBackgroundColor=none;" connectable="0" vertex="1" parent="QCA9Z_Ov1yEkCywOuRm5-90">
          <mxGeometry relative="1" as="geometry" />
        </mxCell>
        <mxCell id="QCA9Z_Ov1yEkCywOuRm5-92" value="EXPORTER LISTE PLAYER" style="ellipse;whiteSpace=wrap;html=1;" vertex="1" parent="q_01qjkOqOAWfI39asXP-10">
          <mxGeometry x="457.5" y="1482" width="145" height="50" as="geometry" />
        </mxCell>
        <mxCell id="QCA9Z_Ov1yEkCywOuRm5-93" value="&amp;lt;&amp;lt;extend&amp;gt;&amp;gt;" style="html=1;verticalAlign=bottom;labelBackgroundColor=none;endArrow=open;endFill=0;dashed=1;rounded=0;" edge="1" parent="q_01qjkOqOAWfI39asXP-10" source="QCA9Z_Ov1yEkCywOuRm5-92" target="QCA9Z_Ov1yEkCywOuRm5-89">
          <mxGeometry width="160" relative="1" as="geometry">
            <mxPoint x="440" y="1537" as="sourcePoint" />
            <mxPoint x="295" y="1550" as="targetPoint" />
          </mxGeometry>
        </mxCell>
        <mxCell id="QCA9Z_Ov1yEkCywOuRm5-94" value="SUSPENDRE/ ACTIVER PLAYER" style="ellipse;whiteSpace=wrap;html=1;" vertex="1" parent="q_01qjkOqOAWfI39asXP-10">
          <mxGeometry x="510" y="1570" width="160" height="50" as="geometry" />
        </mxCell>
        <mxCell id="QCA9Z_Ov1yEkCywOuRm5-95" value="&amp;lt;&amp;lt;extend&amp;gt;&amp;gt;" style="html=1;verticalAlign=bottom;labelBackgroundColor=none;endArrow=open;endFill=0;dashed=1;rounded=0;" edge="1" parent="q_01qjkOqOAWfI39asXP-10" source="QCA9Z_Ov1yEkCywOuRm5-94" target="QCA9Z_Ov1yEkCywOuRm5-89">
          <mxGeometry width="160" relative="1" as="geometry">
            <mxPoint x="403" y="1549" as="sourcePoint" />
            <mxPoint x="312" y="1571" as="targetPoint" />
          </mxGeometry>
        </mxCell>
        <mxCell id="QCA9Z_Ov1yEkCywOuRm5-96" value="CONSULTER STATISTIQUE PLAYER" style="ellipse;whiteSpace=wrap;html=1;" vertex="1" parent="q_01qjkOqOAWfI39asXP-10">
          <mxGeometry x="400" y="1650" width="155" height="50" as="geometry" />
        </mxCell>
        <mxCell id="QCA9Z_Ov1yEkCywOuRm5-97" value="&amp;lt;&amp;lt;extend&amp;gt;&amp;gt;" style="html=1;verticalAlign=bottom;labelBackgroundColor=none;endArrow=open;endFill=0;dashed=1;rounded=0;" edge="1" parent="q_01qjkOqOAWfI39asXP-10" source="QCA9Z_Ov1yEkCywOuRm5-96" target="QCA9Z_Ov1yEkCywOuRm5-89">
          <mxGeometry width="160" relative="1" as="geometry">
            <mxPoint x="402" y="1618" as="sourcePoint" />
            <mxPoint x="307" y="1589" as="targetPoint" />
          </mxGeometry>
        </mxCell>
        <mxCell id="QCA9Z_Ov1yEkCywOuRm5-220" value="ACTIVER/SUSPENDRE FOURNISSEUR" style="ellipse;whiteSpace=wrap;html=1;" vertex="1" parent="q_01qjkOqOAWfI39asXP-10">
          <mxGeometry x="145" y="1710" width="145" height="50" as="geometry" />
        </mxCell>
        <mxCell id="QCA9Z_Ov1yEkCywOuRm5-239" value="CONSULTER DASHBOARD" style="ellipse;whiteSpace=wrap;html=1;" vertex="1" parent="q_01qjkOqOAWfI39asXP-10">
          <mxGeometry x="40" y="1260" width="140" height="50" as="geometry" />
        </mxCell>
        <mxCell id="QCA9Z_Ov1yEkCywOuRm5-245" value="CONSULTER HISTORIQUE" style="ellipse;whiteSpace=wrap;html=1;" vertex="1" parent="q_01qjkOqOAWfI39asXP-10">
          <mxGeometry x="25" y="840" width="130" height="50" as="geometry" />
        </mxCell>
        <mxCell id="QCA9Z_Ov1yEkCywOuRm5-247" value="EXPORTER HISTORIQUE" style="ellipse;whiteSpace=wrap;html=1;" vertex="1" parent="q_01qjkOqOAWfI39asXP-10">
          <mxGeometry x="265" y="770" width="145" height="50" as="geometry" />
        </mxCell>
        <mxCell id="QCA9Z_Ov1yEkCywOuRm5-248" value="&amp;lt;&amp;lt;extend&amp;gt;&amp;gt;" style="html=1;verticalAlign=bottom;labelBackgroundColor=none;endArrow=open;endFill=0;dashed=1;rounded=0;" edge="1" parent="q_01qjkOqOAWfI39asXP-10" source="QCA9Z_Ov1yEkCywOuRm5-247" target="QCA9Z_Ov1yEkCywOuRm5-245">
          <mxGeometry width="160" relative="1" as="geometry">
            <mxPoint x="275" y="880" as="sourcePoint" />
            <mxPoint x="154" y="907" as="targetPoint" />
          </mxGeometry>
        </mxCell>
        <mxCell id="QCA9Z_Ov1yEkCywOuRm5-257" value="&amp;lt;&amp;lt;include&amp;gt;&amp;gt;" style="html=1;verticalAlign=bottom;labelBackgroundColor=none;endArrow=open;endFill=0;dashed=1;rounded=0;" edge="1" parent="q_01qjkOqOAWfI39asXP-10" source="QCA9Z_Ov1yEkCywOuRm5-220" target="QCA9Z_Ov1yEkCywOuRm5-8">
          <mxGeometry width="160" relative="1" as="geometry">
            <mxPoint x="199.59077556921875" y="1802.347514170909" as="sourcePoint" />
            <mxPoint x="785" y="910" as="targetPoint" />
            <Array as="points">
              <mxPoint x="710" y="1780" />
            </Array>
          </mxGeometry>
        </mxCell>
        <mxCell id="QCA9Z_Ov1yEkCywOuRm5-99" value="&amp;lt;&amp;lt;include&amp;gt;&amp;gt;" style="html=1;verticalAlign=bottom;labelBackgroundColor=none;endArrow=open;endFill=0;dashed=1;rounded=0;" edge="1" parent="q_01qjkOqOAWfI39asXP-10" source="QCA9Z_Ov1yEkCywOuRm5-81" target="QCA9Z_Ov1yEkCywOuRm5-8">
          <mxGeometry width="160" relative="1" as="geometry">
            <mxPoint x="185" y="1372" as="sourcePoint" />
            <mxPoint x="775" y="900" as="targetPoint" />
            <Array as="points">
              <mxPoint x="690" y="1390" />
            </Array>
          </mxGeometry>
        </mxCell>
        <mxCell id="QCA9Z_Ov1yEkCywOuRm5-412" value="CRUD POLITIQUE DE CONFIDENTIALITER&amp;nbsp;" style="ellipse;whiteSpace=wrap;html=1;" vertex="1" parent="q_01qjkOqOAWfI39asXP-10">
          <mxGeometry x="135" y="1800" width="145" height="50" as="geometry" />
        </mxCell>
        <mxCell id="QCA9Z_Ov1yEkCywOuRm5-415" value="PROMOUVOIR QUIZ" style="ellipse;whiteSpace=wrap;html=1;" vertex="1" parent="q_01qjkOqOAWfI39asXP-10">
          <mxGeometry x="135" y="1900" width="145" height="50" as="geometry" />
        </mxCell>
        <mxCell id="QCA9Z_Ov1yEkCywOuRm5-419" value="&amp;lt;&amp;lt;include&amp;gt;&amp;gt;" style="html=1;verticalAlign=bottom;labelBackgroundColor=none;endArrow=open;endFill=0;dashed=1;rounded=0;" edge="1" parent="q_01qjkOqOAWfI39asXP-10" source="QCA9Z_Ov1yEkCywOuRm5-415" target="QCA9Z_Ov1yEkCywOuRm5-8">
          <mxGeometry width="160" relative="1" as="geometry">
            <mxPoint x="309" y="1832" as="sourcePoint" />
            <mxPoint x="796" y="920" as="targetPoint" />
            <Array as="points">
              <mxPoint x="880" y="1820" />
            </Array>
          </mxGeometry>
        </mxCell>
        <mxCell id="QCA9Z_Ov1yEkCywOuRm5-418" value="&amp;lt;&amp;lt;include&amp;gt;&amp;gt;" style="html=1;verticalAlign=bottom;labelBackgroundColor=none;endArrow=open;endFill=0;dashed=1;rounded=0;" edge="1" parent="q_01qjkOqOAWfI39asXP-10" source="QCA9Z_Ov1yEkCywOuRm5-412" target="QCA9Z_Ov1yEkCywOuRm5-8">
          <mxGeometry width="160" relative="1" as="geometry">
            <mxPoint x="299" y="1822" as="sourcePoint" />
            <mxPoint x="786" y="910" as="targetPoint" />
            <Array as="points">
              <mxPoint x="850" y="1800" />
            </Array>
          </mxGeometry>
        </mxCell>
        <mxCell id="QCA9Z_Ov1yEkCywOuRm5-420" value="CONSULTER TRANSACTION" style="ellipse;whiteSpace=wrap;html=1;" vertex="1" parent="q_01qjkOqOAWfI39asXP-10">
          <mxGeometry x="70" y="890" width="130" height="50" as="geometry" />
        </mxCell>
        <mxCell id="QCA9Z_Ov1yEkCywOuRm5-422" value="&amp;lt;&amp;lt;extend&amp;gt;&amp;gt;" style="html=1;verticalAlign=bottom;labelBackgroundColor=none;endArrow=open;endFill=0;dashed=1;rounded=0;" edge="1" parent="q_01qjkOqOAWfI39asXP-10" source="QCA9Z_Ov1yEkCywOuRm5-247" target="QCA9Z_Ov1yEkCywOuRm5-420">
          <mxGeometry width="160" relative="1" as="geometry">
            <mxPoint x="291" y="821" as="sourcePoint" />
            <mxPoint x="152" y="860" as="targetPoint" />
          </mxGeometry>
        </mxCell>
        <mxCell id="QCA9Z_Ov1yEkCywOuRm5-423" value="ACTIVER/DESACTIVER QUIZ" style="ellipse;whiteSpace=wrap;html=1;" vertex="1" parent="q_01qjkOqOAWfI39asXP-10">
          <mxGeometry x="357.5" y="1010" width="145" height="50" as="geometry" />
        </mxCell>
        <mxCell id="QCA9Z_Ov1yEkCywOuRm5-424" value="" style="endArrow=block;html=1;rounded=0;align=center;verticalAlign=bottom;endFill=0;labelBackgroundColor=none;endSize=8;" edge="1" parent="q_01qjkOqOAWfI39asXP-10" source="QCA9Z_Ov1yEkCywOuRm5-423" target="QCA9Z_Ov1yEkCywOuRm5-24">
          <mxGeometry relative="1" as="geometry">
            <mxPoint x="451" y="980" as="sourcePoint" />
            <mxPoint x="174" y="1000" as="targetPoint" />
          </mxGeometry>
        </mxCell>
        <mxCell id="QCA9Z_Ov1yEkCywOuRm5-425" value="" style="resizable=0;html=1;align=center;verticalAlign=top;labelBackgroundColor=none;" connectable="0" vertex="1" parent="QCA9Z_Ov1yEkCywOuRm5-424">
          <mxGeometry relative="1" as="geometry" />
        </mxCell>
        <mxCell id="q_01qjkOqOAWfI39asXP-18" value="" style="endArrow=none;startArrow=none;endFill=0;startFill=0;endSize=8;html=1;verticalAlign=bottom;labelBackgroundColor=none;strokeWidth=3;rounded=0;" parent="1" source="q_01qjkOqOAWfI39asXP-1" target="q_01qjkOqOAWfI39asXP-12" edge="1">
          <mxGeometry width="160" relative="1" as="geometry">
            <mxPoint x="460" y="510" as="sourcePoint" />
            <mxPoint x="620" y="510" as="targetPoint" />
          </mxGeometry>
        </mxCell>
        <mxCell id="q_01qjkOqOAWfI39asXP-19" value="" style="endArrow=none;startArrow=none;endFill=0;startFill=0;endSize=8;html=1;verticalAlign=bottom;labelBackgroundColor=none;strokeWidth=3;rounded=0;" parent="1" source="q_01qjkOqOAWfI39asXP-1" target="q_01qjkOqOAWfI39asXP-17" edge="1">
          <mxGeometry width="160" relative="1" as="geometry">
            <mxPoint x="170" y="444" as="sourcePoint" />
            <mxPoint x="445" y="342" as="targetPoint" />
          </mxGeometry>
        </mxCell>
        <mxCell id="q_01qjkOqOAWfI39asXP-39" value="" style="endArrow=none;startArrow=none;endFill=0;startFill=0;endSize=8;html=1;verticalAlign=bottom;labelBackgroundColor=none;strokeWidth=3;rounded=0;" parent="1" source="q_01qjkOqOAWfI39asXP-1" target="q_01qjkOqOAWfI39asXP-50" edge="1">
          <mxGeometry width="160" relative="1" as="geometry">
            <mxPoint x="170" y="530" as="sourcePoint" />
            <mxPoint x="576" y="611" as="targetPoint" />
          </mxGeometry>
        </mxCell>
        <mxCell id="q_01qjkOqOAWfI39asXP-40" value="&amp;lt;&amp;lt;sécondaire&amp;gt;&amp;gt;&lt;br&gt;&lt;br&gt;&lt;b&gt;MADAPI&lt;br&gt;&lt;/b&gt;" style="html=1;align=center;verticalAlign=middle;dashed=0;whiteSpace=wrap;" parent="1" vertex="1">
          <mxGeometry x="1390" y="460" width="120" height="60" as="geometry" />
        </mxCell>
        <mxCell id="q_01qjkOqOAWfI39asXP-41" value="" style="endArrow=none;startArrow=none;endFill=0;startFill=0;endSize=8;html=1;verticalAlign=bottom;labelBackgroundColor=none;strokeWidth=3;rounded=0;" parent="1" source="q_01qjkOqOAWfI39asXP-29" target="q_01qjkOqOAWfI39asXP-40" edge="1">
          <mxGeometry width="160" relative="1" as="geometry">
            <mxPoint x="869" y="453" as="sourcePoint" />
            <mxPoint x="1275" y="534" as="targetPoint" />
          </mxGeometry>
        </mxCell>
        <mxCell id="QCA9Z_Ov1yEkCywOuRm5-6" value="" style="endArrow=none;startArrow=none;endFill=0;startFill=0;endSize=8;html=1;verticalAlign=bottom;labelBackgroundColor=none;strokeWidth=3;rounded=0;" edge="1" parent="1" source="q_01qjkOqOAWfI39asXP-2">
          <mxGeometry width="160" relative="1" as="geometry">
            <mxPoint x="120" y="935.4232873737892" as="sourcePoint" />
            <mxPoint x="430.32375867393375" y="923.4921120510962" as="targetPoint" />
          </mxGeometry>
        </mxCell>
        <mxCell id="QCA9Z_Ov1yEkCywOuRm5-12" value="" style="endArrow=none;startArrow=none;endFill=0;startFill=0;endSize=8;html=1;verticalAlign=bottom;labelBackgroundColor=none;strokeWidth=3;rounded=0;" edge="1" parent="1" source="q_01qjkOqOAWfI39asXP-2" target="q_01qjkOqOAWfI39asXP-17">
          <mxGeometry width="160" relative="1" as="geometry">
            <mxPoint x="390" y="1050" as="sourcePoint" />
            <mxPoint x="712" y="1022" as="targetPoint" />
            <Array as="points">
              <mxPoint x="105" y="365" />
            </Array>
          </mxGeometry>
        </mxCell>
        <mxCell id="QCA9Z_Ov1yEkCywOuRm5-29" value="" style="endArrow=none;startArrow=none;endFill=0;startFill=0;endSize=8;html=1;verticalAlign=bottom;labelBackgroundColor=none;strokeWidth=3;rounded=0;" edge="1" parent="1" source="q_01qjkOqOAWfI39asXP-2" target="QCA9Z_Ov1yEkCywOuRm5-24">
          <mxGeometry width="160" relative="1" as="geometry">
            <mxPoint x="120" y="942.5957988892199" as="sourcePoint" />
            <mxPoint x="450.7366055070472" y="1110.0763816048773" as="targetPoint" />
          </mxGeometry>
        </mxCell>
        <mxCell id="QCA9Z_Ov1yEkCywOuRm5-46" value="" style="endArrow=none;startArrow=none;endFill=0;startFill=0;endSize=8;html=1;verticalAlign=bottom;labelBackgroundColor=none;strokeWidth=3;rounded=0;" edge="1" parent="1" source="q_01qjkOqOAWfI39asXP-2" target="QCA9Z_Ov1yEkCywOuRm5-28">
          <mxGeometry width="160" relative="1" as="geometry">
            <mxPoint x="120" y="952.8805541203824" as="sourcePoint" />
            <mxPoint x="414.67999999999984" y="1304.1499999999999" as="targetPoint" />
          </mxGeometry>
        </mxCell>
        <mxCell id="QCA9Z_Ov1yEkCywOuRm5-47" value="" style="endArrow=none;startArrow=none;endFill=0;startFill=0;endSize=8;html=1;verticalAlign=bottom;labelBackgroundColor=none;strokeWidth=3;rounded=0;" edge="1" parent="1" source="q_01qjkOqOAWfI39asXP-2" target="QCA9Z_Ov1yEkCywOuRm5-27">
          <mxGeometry width="160" relative="1" as="geometry">
            <mxPoint x="120" y="947.5521539950798" as="sourcePoint" />
            <mxPoint x="446.0074080842578" y="1198.624672776826" as="targetPoint" />
          </mxGeometry>
        </mxCell>
        <mxCell id="QCA9Z_Ov1yEkCywOuRm5-60" value="" style="endArrow=none;startArrow=none;endFill=0;startFill=0;endSize=8;html=1;verticalAlign=bottom;labelBackgroundColor=none;strokeWidth=3;rounded=0;" edge="1" parent="1" source="q_01qjkOqOAWfI39asXP-2" target="QCA9Z_Ov1yEkCywOuRm5-57">
          <mxGeometry width="160" relative="1" as="geometry">
            <mxPoint x="120" y="990" as="sourcePoint" />
            <mxPoint x="415" y="1341" as="targetPoint" />
          </mxGeometry>
        </mxCell>
        <mxCell id="QCA9Z_Ov1yEkCywOuRm5-73" value="" style="endArrow=none;startArrow=none;endFill=0;startFill=0;endSize=8;html=1;verticalAlign=bottom;labelBackgroundColor=none;strokeWidth=3;rounded=0;" edge="1" parent="1" source="q_01qjkOqOAWfI39asXP-2" target="QCA9Z_Ov1yEkCywOuRm5-70">
          <mxGeometry width="160" relative="1" as="geometry">
            <mxPoint x="120" y="940" as="sourcePoint" />
            <mxPoint x="461" y="1125" as="targetPoint" />
          </mxGeometry>
        </mxCell>
        <mxCell id="QCA9Z_Ov1yEkCywOuRm5-82" value="" style="endArrow=none;startArrow=none;endFill=0;startFill=0;endSize=8;html=1;verticalAlign=bottom;labelBackgroundColor=none;strokeWidth=3;rounded=0;" edge="1" parent="1" source="q_01qjkOqOAWfI39asXP-2" target="QCA9Z_Ov1yEkCywOuRm5-81">
          <mxGeometry width="160" relative="1" as="geometry">
            <mxPoint x="130" y="1157" as="sourcePoint" />
            <mxPoint x="474" y="1551" as="targetPoint" />
          </mxGeometry>
        </mxCell>
        <mxCell id="QCA9Z_Ov1yEkCywOuRm5-101" value="" style="endArrow=none;startArrow=none;endFill=0;startFill=0;endSize=8;html=1;verticalAlign=bottom;labelBackgroundColor=none;strokeWidth=3;rounded=0;" edge="1" parent="1" source="q_01qjkOqOAWfI39asXP-7" target="QCA9Z_Ov1yEkCywOuRm5-220">
          <mxGeometry width="160" relative="1" as="geometry">
            <mxPoint x="255" y="1409" as="sourcePoint" />
            <mxPoint x="435.4092871675323" y="2002.347311432572" as="targetPoint" />
          </mxGeometry>
        </mxCell>
        <mxCell id="QCA9Z_Ov1yEkCywOuRm5-240" value="" style="endArrow=none;startArrow=none;endFill=0;startFill=0;endSize=8;html=1;verticalAlign=bottom;labelBackgroundColor=none;strokeWidth=3;rounded=0;" edge="1" parent="1" source="q_01qjkOqOAWfI39asXP-2" target="QCA9Z_Ov1yEkCywOuRm5-239">
          <mxGeometry width="160" relative="1" as="geometry">
            <mxPoint x="130" y="1157" as="sourcePoint" />
            <mxPoint x="474" y="1551" as="targetPoint" />
          </mxGeometry>
        </mxCell>
        <mxCell id="QCA9Z_Ov1yEkCywOuRm5-246" value="" style="endArrow=none;startArrow=none;endFill=0;startFill=0;endSize=8;html=1;verticalAlign=bottom;labelBackgroundColor=none;strokeWidth=3;rounded=0;" edge="1" parent="1" source="q_01qjkOqOAWfI39asXP-2" target="QCA9Z_Ov1yEkCywOuRm5-245">
          <mxGeometry width="160" relative="1" as="geometry">
            <mxPoint x="130" y="1134" as="sourcePoint" />
            <mxPoint x="434" y="1013" as="targetPoint" />
          </mxGeometry>
        </mxCell>
        <mxCell id="QCA9Z_Ov1yEkCywOuRm5-408" value="" style="endArrow=block;html=1;rounded=0;align=center;verticalAlign=bottom;endFill=0;labelBackgroundColor=none;endSize=8;" edge="1" parent="1" source="q_01qjkOqOAWfI39asXP-7">
          <mxGeometry relative="1" as="geometry">
            <mxPoint x="81" y="1778" as="sourcePoint" />
            <mxPoint x="110" y="1190" as="targetPoint" />
          </mxGeometry>
        </mxCell>
        <mxCell id="QCA9Z_Ov1yEkCywOuRm5-409" value="" style="resizable=0;html=1;align=center;verticalAlign=top;labelBackgroundColor=none;" connectable="0" vertex="1" parent="QCA9Z_Ov1yEkCywOuRm5-408">
          <mxGeometry relative="1" as="geometry" />
        </mxCell>
        <mxCell id="QCA9Z_Ov1yEkCywOuRm5-413" value="" style="endArrow=none;startArrow=none;endFill=0;startFill=0;endSize=8;html=1;verticalAlign=bottom;labelBackgroundColor=none;strokeWidth=3;rounded=0;" edge="1" parent="1" source="q_01qjkOqOAWfI39asXP-7" target="QCA9Z_Ov1yEkCywOuRm5-412">
          <mxGeometry width="160" relative="1" as="geometry">
            <mxPoint x="130" y="2003" as="sourcePoint" />
            <mxPoint x="535" y="2083" as="targetPoint" />
          </mxGeometry>
        </mxCell>
        <mxCell id="QCA9Z_Ov1yEkCywOuRm5-416" value="" style="endArrow=none;startArrow=none;endFill=0;startFill=0;endSize=8;html=1;verticalAlign=bottom;labelBackgroundColor=none;strokeWidth=3;rounded=0;" edge="1" parent="1" source="q_01qjkOqOAWfI39asXP-7" target="QCA9Z_Ov1yEkCywOuRm5-415">
          <mxGeometry width="160" relative="1" as="geometry">
            <mxPoint x="130" y="2006" as="sourcePoint" />
            <mxPoint x="533" y="2157" as="targetPoint" />
          </mxGeometry>
        </mxCell>
        <mxCell id="QCA9Z_Ov1yEkCywOuRm5-421" value="" style="endArrow=none;startArrow=none;endFill=0;startFill=0;endSize=8;html=1;verticalAlign=bottom;labelBackgroundColor=none;strokeWidth=3;rounded=0;" edge="1" parent="1" source="q_01qjkOqOAWfI39asXP-2" target="QCA9Z_Ov1yEkCywOuRm5-420">
          <mxGeometry width="160" relative="1" as="geometry">
            <mxPoint x="130" y="1137" as="sourcePoint" />
            <mxPoint x="421" y="1085" as="targetPoint" />
          </mxGeometry>
        </mxCell>
      </root>
    </mxGraphModel>
  </diagram>
  <diagram id="0mWProan0XDQsZTXIBUd" name="DS-JOUER-QUIZ-SMS">
    <mxGraphModel dx="1986" dy="616" grid="1" gridSize="10" guides="1" tooltips="1" connect="1" arrows="1" fold="1" page="1" pageScale="1" pageWidth="850" pageHeight="1100" math="0" shadow="0">
      <root>
        <mxCell id="0" />
        <mxCell id="1" parent="0" />
        <mxCell id="eWJ-Lkr1AE2Grumc6CYF-1" value="" style="shape=umlLifeline;perimeter=lifelinePerimeter;whiteSpace=wrap;html=1;container=1;dropTarget=0;collapsible=0;recursiveResize=0;outlineConnect=0;portConstraint=eastwest;newEdgeStyle={&quot;curved&quot;:0,&quot;rounded&quot;:0};participant=umlActor;" vertex="1" parent="1">
          <mxGeometry x="70" y="80" width="20" height="1130" as="geometry" />
        </mxCell>
        <mxCell id="eWJ-Lkr1AE2Grumc6CYF-2" value="" style="html=1;points=[[0,0,0,0,5],[0,1,0,0,-5],[1,0,0,0,5],[1,1,0,0,-5]];perimeter=orthogonalPerimeter;outlineConnect=0;targetShapes=umlLifeline;portConstraint=eastwest;newEdgeStyle={&quot;curved&quot;:0,&quot;rounded&quot;:0};" vertex="1" parent="eWJ-Lkr1AE2Grumc6CYF-1">
          <mxGeometry x="5" y="80" width="10" height="350" as="geometry" />
        </mxCell>
        <mxCell id="UQt9JLOgPoSAoziEbRSs-1" value="PLAYER" style="text;html=1;align=center;verticalAlign=middle;resizable=0;points=[];autosize=1;strokeColor=none;fillColor=none;" vertex="1" parent="1">
          <mxGeometry x="45" y="48" width="70" height="30" as="geometry" />
        </mxCell>
        <mxCell id="h16Pj9VStfp6abUwpdmL-2" value="" style="ellipse;html=1;fillColor=strokeColor;" vertex="1" parent="1">
          <mxGeometry x="-110" y="160" width="4" height="4" as="geometry" />
        </mxCell>
        <mxCell id="h16Pj9VStfp6abUwpdmL-3" value="" style="endArrow=open;html=1;rounded=0;align=center;verticalAlign=top;endFill=0;labelBackgroundColor=none;endSize=6;" edge="1" source="h16Pj9VStfp6abUwpdmL-2" parent="1" target="eWJ-Lkr1AE2Grumc6CYF-2">
          <mxGeometry relative="1" as="geometry">
            <mxPoint x="54" y="162" as="targetPoint" />
          </mxGeometry>
        </mxCell>
        <mxCell id="h16Pj9VStfp6abUwpdmL-4" value="BroadcastQuiz()" style="edgeLabel;html=1;align=center;verticalAlign=middle;resizable=0;points=[];" vertex="1" connectable="0" parent="h16Pj9VStfp6abUwpdmL-3">
          <mxGeometry x="-0.2613" y="-2" relative="1" as="geometry">
            <mxPoint x="9" y="-14" as="offset" />
          </mxGeometry>
        </mxCell>
        <mxCell id="h16Pj9VStfp6abUwpdmL-6" value="" style="html=1;verticalAlign=bottom;labelBackgroundColor=none;endArrow=block;endFill=1;rounded=0;entryX=0;entryY=0;entryDx=0;entryDy=5;entryPerimeter=0;" edge="1" parent="1" source="eWJ-Lkr1AE2Grumc6CYF-2" target="h16Pj9VStfp6abUwpdmL-9">
          <mxGeometry width="160" relative="1" as="geometry">
            <mxPoint x="85" y="180" as="sourcePoint" />
            <mxPoint x="305" y="200" as="targetPoint" />
          </mxGeometry>
        </mxCell>
        <mxCell id="h16Pj9VStfp6abUwpdmL-7" value="1 commencerQuiz()" style="edgeLabel;html=1;align=center;verticalAlign=middle;resizable=0;points=[];" vertex="1" connectable="0" parent="h16Pj9VStfp6abUwpdmL-6">
          <mxGeometry x="-0.0309" y="2" relative="1" as="geometry">
            <mxPoint as="offset" />
          </mxGeometry>
        </mxCell>
        <mxCell id="h16Pj9VStfp6abUwpdmL-8" value=":OPERATEUR SMS C" style="shape=umlLifeline;perimeter=lifelinePerimeter;whiteSpace=wrap;html=1;container=1;dropTarget=0;collapsible=0;recursiveResize=0;outlineConnect=0;portConstraint=eastwest;newEdgeStyle={&quot;edgeStyle&quot;:&quot;elbowEdgeStyle&quot;,&quot;elbow&quot;:&quot;vertical&quot;,&quot;curved&quot;:0,&quot;rounded&quot;:0};" vertex="1" parent="1">
          <mxGeometry x="280" y="78" width="100" height="1132" as="geometry" />
        </mxCell>
        <mxCell id="h16Pj9VStfp6abUwpdmL-9" value="" style="html=1;points=[[0,0,0,0,5],[0,1,0,0,-5],[1,0,0,0,5],[1,1,0,0,-5]];perimeter=orthogonalPerimeter;outlineConnect=0;targetShapes=umlLifeline;portConstraint=eastwest;newEdgeStyle={&quot;curved&quot;:0,&quot;rounded&quot;:0};" vertex="1" parent="h16Pj9VStfp6abUwpdmL-8">
          <mxGeometry x="45" y="120" width="10" height="250" as="geometry" />
        </mxCell>
        <mxCell id="h16Pj9VStfp6abUwpdmL-14" value="" style="html=1;points=[[0,0,0,0,5],[0,1,0,0,-5],[1,0,0,0,5],[1,1,0,0,-5]];perimeter=orthogonalPerimeter;outlineConnect=0;targetShapes=umlLifeline;portConstraint=eastwest;newEdgeStyle={&quot;curved&quot;:0,&quot;rounded&quot;:0};" vertex="1" parent="h16Pj9VStfp6abUwpdmL-8">
          <mxGeometry x="45" y="172" width="10" height="28" as="geometry" />
        </mxCell>
        <mxCell id="h16Pj9VStfp6abUwpdmL-15" value="1.1 verificationInformation()" style="html=1;align=left;spacingLeft=2;endArrow=block;rounded=0;edgeStyle=orthogonalEdgeStyle;curved=0;rounded=0;" edge="1" target="h16Pj9VStfp6abUwpdmL-14" parent="h16Pj9VStfp6abUwpdmL-8" source="h16Pj9VStfp6abUwpdmL-9">
          <mxGeometry relative="1" as="geometry">
            <mxPoint x="60" y="152" as="sourcePoint" />
            <Array as="points">
              <mxPoint x="90" y="152" />
              <mxPoint x="90" y="192" />
            </Array>
          </mxGeometry>
        </mxCell>
        <mxCell id="h16Pj9VStfp6abUwpdmL-12" value=":MS QUIZ" style="shape=umlLifeline;perimeter=lifelinePerimeter;whiteSpace=wrap;html=1;container=1;dropTarget=0;collapsible=0;recursiveResize=0;outlineConnect=0;portConstraint=eastwest;newEdgeStyle={&quot;edgeStyle&quot;:&quot;elbowEdgeStyle&quot;,&quot;elbow&quot;:&quot;vertical&quot;,&quot;curved&quot;:0,&quot;rounded&quot;:0};" vertex="1" parent="1">
          <mxGeometry x="570" y="80" width="100" height="1130" as="geometry" />
        </mxCell>
        <mxCell id="h16Pj9VStfp6abUwpdmL-13" value="" style="html=1;points=[[0,0,0,0,5],[0,1,0,0,-5],[1,0,0,0,5],[1,1,0,0,-5]];perimeter=orthogonalPerimeter;outlineConnect=0;targetShapes=umlLifeline;portConstraint=eastwest;newEdgeStyle={&quot;curved&quot;:0,&quot;rounded&quot;:0};" vertex="1" parent="h16Pj9VStfp6abUwpdmL-12">
          <mxGeometry x="45" y="210" width="10" height="30" as="geometry" />
        </mxCell>
        <mxCell id="h16Pj9VStfp6abUwpdmL-16" value="" style="html=1;verticalAlign=bottom;labelBackgroundColor=none;endArrow=block;endFill=1;rounded=0;entryX=0;entryY=0;entryDx=0;entryDy=5;entryPerimeter=0;" edge="1" parent="1" source="h16Pj9VStfp6abUwpdmL-9" target="h16Pj9VStfp6abUwpdmL-13">
          <mxGeometry width="160" relative="1" as="geometry">
            <mxPoint x="525" y="282" as="sourcePoint" />
            <mxPoint x="745" y="282" as="targetPoint" />
          </mxGeometry>
        </mxCell>
        <mxCell id="h16Pj9VStfp6abUwpdmL-17" value="1.2&amp;nbsp;findQuiz()" style="edgeLabel;html=1;align=center;verticalAlign=middle;resizable=0;points=[];" vertex="1" connectable="0" parent="h16Pj9VStfp6abUwpdmL-16">
          <mxGeometry x="-0.0309" y="2" relative="1" as="geometry">
            <mxPoint as="offset" />
          </mxGeometry>
        </mxCell>
        <mxCell id="h16Pj9VStfp6abUwpdmL-22" value="" style="html=1;verticalAlign=bottom;labelBackgroundColor=none;endArrow=open;endFill=0;dashed=1;rounded=0;exitX=0;exitY=1;exitDx=0;exitDy=-5;exitPerimeter=0;" edge="1" parent="1" source="h16Pj9VStfp6abUwpdmL-13" target="h16Pj9VStfp6abUwpdmL-9">
          <mxGeometry width="160" relative="1" as="geometry">
            <mxPoint x="530" y="378" as="sourcePoint" />
            <mxPoint x="690" y="378" as="targetPoint" />
          </mxGeometry>
        </mxCell>
        <mxCell id="fvjVLwNrTN-ChCTeYdeL-1" value="alt" style="shape=umlFrame;whiteSpace=wrap;html=1;pointerEvents=0;recursiveResize=0;container=1;collapsible=0;width=50;height=20;" vertex="1" parent="1">
          <mxGeometry x="-110" y="330" width="900" height="930" as="geometry" />
        </mxCell>
        <mxCell id="fvjVLwNrTN-ChCTeYdeL-2" value="[error]" style="text;html=1;" vertex="1" parent="fvjVLwNrTN-ChCTeYdeL-1">
          <mxGeometry width="100" height="20" relative="1" as="geometry">
            <mxPoint x="20" y="40" as="offset" />
          </mxGeometry>
        </mxCell>
        <mxCell id="fvjVLwNrTN-ChCTeYdeL-3" value="[success]" style="line;strokeWidth=1;dashed=1;labelPosition=center;verticalLabelPosition=bottom;align=left;verticalAlign=top;spacingLeft=20;spacingTop=15;html=1;whiteSpace=wrap;" vertex="1" parent="fvjVLwNrTN-ChCTeYdeL-1">
          <mxGeometry y="70" width="790" height="10" as="geometry" />
        </mxCell>
        <mxCell id="fvjVLwNrTN-ChCTeYdeL-19" value="" style="html=1;points=[[0,0,0,0,5],[0,1,0,0,-5],[1,0,0,0,5],[1,1,0,0,-5]];perimeter=orthogonalPerimeter;outlineConnect=0;targetShapes=umlLifeline;portConstraint=eastwest;newEdgeStyle={&quot;curved&quot;:0,&quot;rounded&quot;:0};" vertex="1" parent="fvjVLwNrTN-ChCTeYdeL-1">
          <mxGeometry x="435" y="150" width="10" height="350" as="geometry" />
        </mxCell>
        <mxCell id="fvjVLwNrTN-ChCTeYdeL-25" value="" style="html=1;verticalAlign=bottom;labelBackgroundColor=none;endArrow=open;endFill=0;dashed=1;rounded=0;" edge="1" parent="fvjVLwNrTN-ChCTeYdeL-1" target="eWJ-Lkr1AE2Grumc6CYF-2">
          <mxGeometry width="160" relative="1" as="geometry">
            <mxPoint x="435" y="180" as="sourcePoint" />
            <mxPoint x="190" y="180" as="targetPoint" />
          </mxGeometry>
        </mxCell>
        <mxCell id="fvjVLwNrTN-ChCTeYdeL-29" value="Message de confirmation" style="edgeLabel;html=1;align=center;verticalAlign=middle;resizable=0;points=[];" vertex="1" connectable="0" parent="fvjVLwNrTN-ChCTeYdeL-25">
          <mxGeometry x="0.2539" y="2" relative="1" as="geometry">
            <mxPoint x="25" y="-2" as="offset" />
          </mxGeometry>
        </mxCell>
        <mxCell id="fvjVLwNrTN-ChCTeYdeL-27" value="" style="html=1;points=[[0,0,0,0,5],[0,1,0,0,-5],[1,0,0,0,5],[1,1,0,0,-5]];perimeter=orthogonalPerimeter;outlineConnect=0;targetShapes=umlLifeline;portConstraint=eastwest;newEdgeStyle={&quot;curved&quot;:0,&quot;rounded&quot;:0};" vertex="1" parent="fvjVLwNrTN-ChCTeYdeL-1">
          <mxGeometry x="185" y="180" width="10" height="330" as="geometry" />
        </mxCell>
        <mxCell id="tx7o40KxxYpswjO2JIDn-1" value="Ref" style="shape=umlFrame;whiteSpace=wrap;html=1;pointerEvents=0;recursiveResize=0;container=1;collapsible=0;width=50;" vertex="1" parent="fvjVLwNrTN-ChCTeYdeL-1">
          <mxGeometry x="120" y="240" width="640" height="120" as="geometry" />
        </mxCell>
        <mxCell id="tx7o40KxxYpswjO2JIDn-3" value="" style="html=1;points=[[0,0,0,0,5],[0,1,0,0,-5],[1,0,0,0,5],[1,1,0,0,-5]];perimeter=orthogonalPerimeter;outlineConnect=0;targetShapes=umlLifeline;portConstraint=eastwest;newEdgeStyle={&quot;curved&quot;:0,&quot;rounded&quot;:0};" vertex="1" parent="tx7o40KxxYpswjO2JIDn-1">
          <mxGeometry x="605" y="10" width="10" height="60" as="geometry" />
        </mxCell>
        <mxCell id="tx7o40KxxYpswjO2JIDn-2" value="FACTURATION" style="text;align=center;html=1;" vertex="1" parent="tx7o40KxxYpswjO2JIDn-1">
          <mxGeometry width="100" height="20" relative="1" as="geometry">
            <mxPoint x="330" y="40" as="offset" />
          </mxGeometry>
        </mxCell>
        <mxCell id="GJDie0-54dZ9FWR1ZmzD-1" value="3 confirmerAchat()" style="html=1;verticalAlign=bottom;labelBackgroundColor=none;endArrow=open;endFill=0;rounded=0;" edge="1" parent="fvjVLwNrTN-ChCTeYdeL-1">
          <mxGeometry width="160" relative="1" as="geometry">
            <mxPoint x="195" y="220" as="sourcePoint" />
            <mxPoint x="435" y="220" as="targetPoint" />
          </mxGeometry>
        </mxCell>
        <mxCell id="tx7o40KxxYpswjO2JIDn-16" value="" style="html=1;points=[[0,0,0,0,5],[0,1,0,0,-5],[1,0,0,0,5],[1,1,0,0,-5]];perimeter=orthogonalPerimeter;outlineConnect=0;targetShapes=umlLifeline;portConstraint=eastwest;newEdgeStyle={&quot;curved&quot;:0,&quot;rounded&quot;:0};" vertex="1" parent="fvjVLwNrTN-ChCTeYdeL-1">
          <mxGeometry x="725" y="400" width="10" height="170" as="geometry" />
        </mxCell>
        <mxCell id="GJDie0-54dZ9FWR1ZmzD-9" value="4 envoyerQuestions" style="html=1;verticalAlign=bottom;labelBackgroundColor=none;endArrow=open;endFill=0;rounded=0;" edge="1" parent="fvjVLwNrTN-ChCTeYdeL-1">
          <mxGeometry width="160" relative="1" as="geometry">
            <mxPoint x="725" y="418" as="sourcePoint" />
            <mxPoint x="445" y="418" as="targetPoint" />
          </mxGeometry>
        </mxCell>
        <mxCell id="GJDie0-54dZ9FWR1ZmzD-10" value="5 envoyerQuestions" style="html=1;verticalAlign=bottom;labelBackgroundColor=none;endArrow=open;endFill=0;rounded=0;" edge="1" parent="fvjVLwNrTN-ChCTeYdeL-1" source="fvjVLwNrTN-ChCTeYdeL-19">
          <mxGeometry width="160" relative="1" as="geometry">
            <mxPoint x="430" y="440" as="sourcePoint" />
            <mxPoint x="195" y="440" as="targetPoint" />
          </mxGeometry>
        </mxCell>
        <mxCell id="GJDie0-54dZ9FWR1ZmzD-12" value="6 envoyerReponse" style="html=1;verticalAlign=bottom;labelBackgroundColor=none;endArrow=open;endFill=0;rounded=0;" edge="1" parent="fvjVLwNrTN-ChCTeYdeL-1" target="fvjVLwNrTN-ChCTeYdeL-19">
          <mxGeometry width="160" relative="1" as="geometry">
            <mxPoint x="200" y="470" as="sourcePoint" />
            <mxPoint x="385" y="470" as="targetPoint" />
          </mxGeometry>
        </mxCell>
        <mxCell id="GJDie0-54dZ9FWR1ZmzD-13" value="6 envoyerReponse" style="html=1;verticalAlign=bottom;labelBackgroundColor=none;endArrow=open;endFill=0;rounded=0;" edge="1" parent="fvjVLwNrTN-ChCTeYdeL-1" target="tx7o40KxxYpswjO2JIDn-16">
          <mxGeometry width="160" relative="1" as="geometry">
            <mxPoint x="445" y="477" as="sourcePoint" />
            <mxPoint x="729.5" y="477" as="targetPoint" />
          </mxGeometry>
        </mxCell>
        <mxCell id="GJDie0-54dZ9FWR1ZmzD-14" value="" style="html=1;points=[[0,0,0,0,5],[0,1,0,0,-5],[1,0,0,0,5],[1,1,0,0,-5]];perimeter=orthogonalPerimeter;outlineConnect=0;targetShapes=umlLifeline;portConstraint=eastwest;newEdgeStyle={&quot;curved&quot;:0,&quot;rounded&quot;:0};" vertex="1" parent="fvjVLwNrTN-ChCTeYdeL-1">
          <mxGeometry x="725" y="510" width="10" height="40" as="geometry" />
        </mxCell>
        <mxCell id="GJDie0-54dZ9FWR1ZmzD-15" value="calculerScore et &lt;br&gt;EnregisterReponse" style="html=1;align=left;spacingLeft=2;endArrow=block;rounded=0;edgeStyle=orthogonalEdgeStyle;curved=0;rounded=0;" edge="1" target="GJDie0-54dZ9FWR1ZmzD-14" parent="fvjVLwNrTN-ChCTeYdeL-1">
          <mxGeometry relative="1" as="geometry">
            <mxPoint x="730" y="490" as="sourcePoint" />
            <Array as="points">
              <mxPoint x="760" y="520" />
            </Array>
          </mxGeometry>
        </mxCell>
        <mxCell id="GJDie0-54dZ9FWR1ZmzD-16" value="Loop" style="shape=umlFrame;whiteSpace=wrap;html=1;pointerEvents=0;recursiveResize=0;container=1;collapsible=0;width=80;height=20;" vertex="1" parent="fvjVLwNrTN-ChCTeYdeL-1">
          <mxGeometry x="60" y="380" width="810" height="200" as="geometry" />
        </mxCell>
        <mxCell id="GJDie0-54dZ9FWR1ZmzD-17" value="[ NbrQuestion &amp;gt; 0 &lt;br&gt;&amp;amp;&amp;amp;&lt;br&gt;timeQuiz &amp;gt; 0 ]&amp;nbsp;" style="text;html=1;" vertex="1" parent="GJDie0-54dZ9FWR1ZmzD-16">
          <mxGeometry width="100" height="20" relative="1" as="geometry">
            <mxPoint x="20" y="40" as="offset" />
          </mxGeometry>
        </mxCell>
        <mxCell id="fvjVLwNrTN-ChCTeYdeL-10" value="" style="html=1;verticalAlign=bottom;labelBackgroundColor=none;endArrow=open;endFill=0;dashed=1;rounded=0;entryX=0.5;entryY=0.8;entryDx=0;entryDy=0;entryPerimeter=0;" edge="1" parent="1" source="h16Pj9VStfp6abUwpdmL-9" target="eWJ-Lkr1AE2Grumc6CYF-2">
          <mxGeometry width="160" relative="1" as="geometry">
            <mxPoint x="325" y="434.73" as="sourcePoint" />
            <mxPoint x="90" y="434.73" as="targetPoint" />
          </mxGeometry>
        </mxCell>
        <mxCell id="fvjVLwNrTN-ChCTeYdeL-11" value="Afficher liste pack" style="edgeLabel;html=1;align=center;verticalAlign=middle;resizable=0;points=[];" vertex="1" connectable="0" parent="fvjVLwNrTN-ChCTeYdeL-10">
          <mxGeometry x="0.093" y="-3" relative="1" as="geometry">
            <mxPoint as="offset" />
          </mxGeometry>
        </mxCell>
        <mxCell id="DcY6_3r7BLT_N5kGfq5u-3" value="" style="html=1;verticalAlign=bottom;labelBackgroundColor=none;endArrow=open;endFill=0;dashed=1;rounded=0;entryX=-0.086;entryY=0.535;entryDx=0;entryDy=0;entryPerimeter=0;" edge="1" parent="1" source="h16Pj9VStfp6abUwpdmL-9" target="eWJ-Lkr1AE2Grumc6CYF-2">
          <mxGeometry width="160" relative="1" as="geometry">
            <mxPoint x="375" y="350.0000000000001" as="sourcePoint" />
            <mxPoint x="133.17999999999984" y="352.52" as="targetPoint" />
          </mxGeometry>
        </mxCell>
        <mxCell id="fvjVLwNrTN-ChCTeYdeL-6" value="Quiz indisponible" style="edgeLabel;html=1;align=center;verticalAlign=middle;resizable=0;points=[];" vertex="1" connectable="0" parent="DcY6_3r7BLT_N5kGfq5u-3">
          <mxGeometry x="0.1029" y="1" relative="1" as="geometry">
            <mxPoint as="offset" />
          </mxGeometry>
        </mxCell>
        <mxCell id="fvjVLwNrTN-ChCTeYdeL-12" value="loop" style="shape=umlFrame;whiteSpace=wrap;html=1;pointerEvents=0;recursiveResize=0;container=1;collapsible=0;width=50;height=20;" vertex="1" parent="1">
          <mxGeometry x="-160" y="180" width="810" height="240" as="geometry" />
        </mxCell>
        <mxCell id="fvjVLwNrTN-ChCTeYdeL-18" value="[Si quiz &lt;br&gt;indisponible]" style="text;html=1;" vertex="1" parent="fvjVLwNrTN-ChCTeYdeL-12">
          <mxGeometry x="5" y="30" width="45" height="20" as="geometry" />
        </mxCell>
        <mxCell id="fvjVLwNrTN-ChCTeYdeL-20" value="" style="html=1;verticalAlign=bottom;labelBackgroundColor=none;endArrow=block;endFill=1;rounded=0;" edge="1" parent="1" source="eWJ-Lkr1AE2Grumc6CYF-2" target="fvjVLwNrTN-ChCTeYdeL-19">
          <mxGeometry width="160" relative="1" as="geometry">
            <mxPoint x="70" y="480" as="sourcePoint" />
            <mxPoint x="310" y="480" as="targetPoint" />
          </mxGeometry>
        </mxCell>
        <mxCell id="fvjVLwNrTN-ChCTeYdeL-21" value="2 choisirPack()" style="edgeLabel;html=1;align=center;verticalAlign=middle;resizable=0;points=[];" vertex="1" connectable="0" parent="fvjVLwNrTN-ChCTeYdeL-20">
          <mxGeometry x="-0.0309" y="2" relative="1" as="geometry">
            <mxPoint as="offset" />
          </mxGeometry>
        </mxCell>
        <mxCell id="GJDie0-54dZ9FWR1ZmzD-19" value="Opt" style="shape=umlFrame;whiteSpace=wrap;html=1;pointerEvents=0;recursiveResize=0;container=1;collapsible=0;width=80;height=20;" vertex="1" parent="1">
          <mxGeometry x="-51" y="930" width="810" height="200" as="geometry" />
        </mxCell>
        <mxCell id="GJDie0-54dZ9FWR1ZmzD-20" value="[Si QuizTerminé &lt;br&gt;ou &lt;br&gt;demandeResultat]&amp;nbsp;" style="text;html=1;" vertex="1" parent="GJDie0-54dZ9FWR1ZmzD-19">
          <mxGeometry width="100" height="20" relative="1" as="geometry">
            <mxPoint x="20" y="40" as="offset" />
          </mxGeometry>
        </mxCell>
      </root>
    </mxGraphModel>
  </diagram>
  <diagram id="DkZlY-MRUXWbj3NY0avd" name="DS-JOUER-QUIZ-APP">
    <mxGraphModel dx="1029" dy="558" grid="1" gridSize="10" guides="1" tooltips="1" connect="1" arrows="1" fold="1" page="1" pageScale="1" pageWidth="850" pageHeight="1100" math="0" shadow="0">
      <root>
        <mxCell id="0" />
        <mxCell id="1" parent="0" />
        <mxCell id="YJMQC00rTo-hnEURt7hc-1" value="" style="shape=umlLifeline;perimeter=lifelinePerimeter;whiteSpace=wrap;html=1;container=1;dropTarget=0;collapsible=0;recursiveResize=0;outlineConnect=0;portConstraint=eastwest;newEdgeStyle={&quot;curved&quot;:0,&quot;rounded&quot;:0};participant=umlActor;" vertex="1" parent="1">
          <mxGeometry x="70" y="80" width="20" height="660" as="geometry" />
        </mxCell>
        <mxCell id="YJMQC00rTo-hnEURt7hc-2" value="" style="html=1;points=[[0,0,0,0,5],[0,1,0,0,-5],[1,0,0,0,5],[1,1,0,0,-5]];perimeter=orthogonalPerimeter;outlineConnect=0;targetShapes=umlLifeline;portConstraint=eastwest;newEdgeStyle={&quot;curved&quot;:0,&quot;rounded&quot;:0};" vertex="1" parent="YJMQC00rTo-hnEURt7hc-1">
          <mxGeometry x="5" y="80" width="10" height="80" as="geometry" />
        </mxCell>
        <mxCell id="YJMQC00rTo-hnEURt7hc-3" value="APP MOBILE" style="shape=umlLifeline;perimeter=lifelinePerimeter;whiteSpace=wrap;html=1;container=1;dropTarget=0;collapsible=0;recursiveResize=0;outlineConnect=0;portConstraint=eastwest;newEdgeStyle={&quot;edgeStyle&quot;:&quot;elbowEdgeStyle&quot;,&quot;elbow&quot;:&quot;vertical&quot;,&quot;curved&quot;:0,&quot;rounded&quot;:0};" vertex="1" parent="1">
          <mxGeometry x="260" y="80" width="100" height="300" as="geometry" />
        </mxCell>
        <mxCell id="YJMQC00rTo-hnEURt7hc-4" value="PLAYER" style="text;html=1;align=center;verticalAlign=middle;resizable=0;points=[];autosize=1;strokeColor=none;fillColor=none;" vertex="1" parent="1">
          <mxGeometry x="45" y="48" width="70" height="30" as="geometry" />
        </mxCell>
      </root>
    </mxGraphModel>
  </diagram>
  <diagram id="prWvTcCSXgttQB-R5pLO" name="Page-4">
    <mxGraphModel dx="1647" dy="893" grid="1" gridSize="10" guides="1" tooltips="1" connect="1" arrows="1" fold="1" page="1" pageScale="1" pageWidth="850" pageHeight="1100" math="0" shadow="0">
      <root>
        <mxCell id="0" />
        <mxCell id="1" parent="0" />
        <mxCell id="ZXudnpuY8nGpJ_tY7vL4-1" value="" style="html=1;verticalAlign=bottom;labelBackgroundColor=none;endArrow=block;endFill=1;rounded=0;" edge="1" parent="1" target="ZXudnpuY8nGpJ_tY7vL4-3">
          <mxGeometry width="160" relative="1" as="geometry">
            <mxPoint x="335" y="560" as="sourcePoint" />
            <mxPoint x="615" y="508" as="targetPoint" />
            <Array as="points">
              <mxPoint x="525" y="560" />
            </Array>
          </mxGeometry>
        </mxCell>
        <mxCell id="ZXudnpuY8nGpJ_tY7vL4-2" value="3.1 facturerPlayer()" style="edgeLabel;html=1;align=center;verticalAlign=middle;resizable=0;points=[];" vertex="1" connectable="0" parent="ZXudnpuY8nGpJ_tY7vL4-1">
          <mxGeometry x="-0.0309" y="2" relative="1" as="geometry">
            <mxPoint as="offset" />
          </mxGeometry>
        </mxCell>
        <mxCell id="ZXudnpuY8nGpJ_tY7vL4-3" value="" style="html=1;points=[[0,0,0,0,5],[0,1,0,0,-5],[1,0,0,0,5],[1,1,0,0,-5]];perimeter=orthogonalPerimeter;outlineConnect=0;targetShapes=umlLifeline;portConstraint=eastwest;newEdgeStyle={&quot;curved&quot;:0,&quot;rounded&quot;:0};" vertex="1" parent="1">
          <mxGeometry x="745" y="558" width="10" height="102" as="geometry" />
        </mxCell>
        <mxCell id="ZXudnpuY8nGpJ_tY7vL4-4" value="" style="html=1;points=[[0,0,0,0,5],[0,1,0,0,-5],[1,0,0,0,5],[1,1,0,0,-5]];perimeter=orthogonalPerimeter;outlineConnect=0;targetShapes=umlLifeline;portConstraint=eastwest;newEdgeStyle={&quot;curved&quot;:0,&quot;rounded&quot;:0};" vertex="1" parent="1">
          <mxGeometry x="895" y="570" width="10" height="280" as="geometry" />
        </mxCell>
        <mxCell id="ZXudnpuY8nGpJ_tY7vL4-5" value="" style="html=1;verticalAlign=bottom;labelBackgroundColor=none;endArrow=block;endFill=1;rounded=0;entryX=0;entryY=0;entryDx=0;entryDy=5;entryPerimeter=0;" edge="1" parent="1" source="ZXudnpuY8nGpJ_tY7vL4-3" target="ZXudnpuY8nGpJ_tY7vL4-4">
          <mxGeometry width="160" relative="1" as="geometry">
            <mxPoint x="770" y="558" as="sourcePoint" />
            <mxPoint x="1050" y="558" as="targetPoint" />
          </mxGeometry>
        </mxCell>
        <mxCell id="ZXudnpuY8nGpJ_tY7vL4-6" value="3.1.1 requette&lt;br&gt;facturation()" style="edgeLabel;html=1;align=center;verticalAlign=middle;resizable=0;points=[];" vertex="1" connectable="0" parent="ZXudnpuY8nGpJ_tY7vL4-5">
          <mxGeometry x="-0.0309" y="2" relative="1" as="geometry">
            <mxPoint as="offset" />
          </mxGeometry>
        </mxCell>
        <mxCell id="ZXudnpuY8nGpJ_tY7vL4-7" value="alt" style="shape=umlFrame;whiteSpace=wrap;html=1;pointerEvents=0;recursiveResize=0;container=1;collapsible=0;width=40;height=20;" vertex="1" parent="1">
          <mxGeometry x="490" y="610" width="520" height="200" as="geometry" />
        </mxCell>
        <mxCell id="ZXudnpuY8nGpJ_tY7vL4-8" value="[Si solde insuffisant&lt;br&gt;ou error]" style="text;html=1;" vertex="1" parent="ZXudnpuY8nGpJ_tY7vL4-7">
          <mxGeometry width="100" height="20" relative="1" as="geometry">
            <mxPoint x="10" y="60" as="offset" />
          </mxGeometry>
        </mxCell>
        <mxCell id="ZXudnpuY8nGpJ_tY7vL4-9" value="[constraint2]" style="line;strokeWidth=1;dashed=1;labelPosition=center;verticalLabelPosition=bottom;align=left;verticalAlign=top;spacingLeft=20;spacingTop=15;html=1;whiteSpace=wrap;" vertex="1" parent="ZXudnpuY8nGpJ_tY7vL4-7">
          <mxGeometry y="110" width="520" height="10" as="geometry" />
        </mxCell>
        <mxCell id="ZXudnpuY8nGpJ_tY7vL4-10" value="" style="html=1;verticalAlign=bottom;labelBackgroundColor=none;endArrow=open;endFill=0;dashed=1;rounded=0;" edge="1" parent="ZXudnpuY8nGpJ_tY7vL4-7">
          <mxGeometry width="160" relative="1" as="geometry">
            <mxPoint x="405" y="30" as="sourcePoint" />
            <mxPoint x="265" y="30" as="targetPoint" />
          </mxGeometry>
        </mxCell>
        <mxCell id="ZXudnpuY8nGpJ_tY7vL4-11" value="error" style="edgeLabel;html=1;align=center;verticalAlign=middle;resizable=0;points=[];" vertex="1" connectable="0" parent="ZXudnpuY8nGpJ_tY7vL4-10">
          <mxGeometry x="0.1029" y="1" relative="1" as="geometry">
            <mxPoint as="offset" />
          </mxGeometry>
        </mxCell>
      </root>
    </mxGraphModel>
  </diagram>
</mxfile>
